<svg id="Layer_1" data-name="Layer 1" xmlns="http://www.w3.org/2000/svg" xmlns:xlink="http://www.w3.org/1999/xlink" viewBox="0 0 135.13 36.5"><defs><style>.cls-1{fill:url(#linear-gradient);}.cls-2{fill:#333;}.cls-3{fill:url(#radial-gradient);}.cls-4{fill:url(#linear-gradient-2);}.cls-5{fill:url(#radial-gradient-2);}.cls-6{fill:url(#radial-gradient-3);}.cls-7{fill:url(#radial-gradient-4);}.cls-8{fill:url(#radial-gradient-5);}.cls-9{fill:url(#radial-gradient-6);}.cls-10{fill:url(#radial-gradient-7);}.cls-11{fill:url(#radial-gradient-8);}.cls-12{fill:url(#radial-gradient-9);}.cls-13{fill:url(#linear-gradient-3);}.cls-14{fill:#c2d7e8;}.cls-15{fill:url(#linear-gradient-4);}.cls-16{fill:#12404f;}.cls-17{fill:url(#linear-gradient-5);}.cls-18{fill:url(#linear-gradient-6);}.cls-19{fill:url(#linear-gradient-7);}.cls-20{fill:url(#linear-gradient-8);}</style><linearGradient id="linear-gradient" x1="-2.1" y1="-6056.27" x2="36.17" y2="-6093.25" gradientTransform="matrix(1, 0, 0, -1, 0, -6058)" gradientUnits="userSpaceOnUse"><stop offset="0" stop-color="#dff4ff"/><stop offset="0.1" stop-color="#d6eaf5"/><stop offset="0.27" stop-color="#bfd0d9"/><stop offset="0.49" stop-color="#98a5ac"/><stop offset="0.75" stop-color="#646b6e"/><stop offset="1" stop-color="#2b2b2b"/></linearGradient><radialGradient id="radial-gradient" cx="0.32" cy="-6059.41" r="25.63" gradientTransform="matrix(1, 0, 0, -1, 0, -6058)" gradientUnits="userSpaceOnUse"><stop offset="0" stop-color="#fff"/><stop offset="0.31" stop-color="#a8a8a8"/><stop offset="0.65" stop-color="#4f4f4f"/><stop offset="0.89" stop-color="#161616"/><stop offset="1"/></radialGradient><linearGradient id="linear-gradient-2" x1="-14536.27" y1="-370.33" x2="-14511.9" y2="-393.88" gradientTransform="matrix(-1, 0, 0, 1, -14504.52, 401.31)" gradientUnits="userSpaceOnUse"><stop offset="0" stop-color="#dff4ff"/><stop offset="0.09" stop-color="#d6eaf5"/><stop offset="0.23" stop-color="#bed0d9"/><stop offset="0.42" stop-color="#96a4ac"/><stop offset="0.65" stop-color="#5f686d"/><stop offset="0.91" stop-color="#1a1d1e"/><stop offset="1"/></linearGradient><radialGradient id="radial-gradient-2" cx="-4.29" cy="-6056.8" r="61.58" gradientTransform="matrix(1, 0, 0, -1, 0, -6058)" gradientUnits="userSpaceOnUse"><stop offset="0" stop-color="#fff"/><stop offset="0.31" stop-color="#fdfdfd"/><stop offset="0.45" stop-color="#f6f6f6"/><stop offset="0.56" stop-color="#e9e9e9"/><stop offset="0.65" stop-color="#d7d7d7"/><stop offset="0.72" stop-color="#bfbfbf"/><stop offset="0.79" stop-color="#a2a2a2"/><stop offset="0.86" stop-color="gray"/><stop offset="0.92" stop-color="#575757"/><stop offset="0.97" stop-color="#2b2b2b"/><stop offset="1" stop-color="#141414"/></radialGradient><radialGradient id="radial-gradient-3" cx="-4.29" cy="-6056.8" r="61.58" xlink:href="#radial-gradient-2"/><radialGradient id="radial-gradient-4" cx="-4.29" cy="-6056.78" r="61.63" xlink:href="#radial-gradient-2"/><radialGradient id="radial-gradient-5" cx="6.74" cy="-6065.33" r="16.61" gradientTransform="matrix(1, 0, 0, -1, 0, -6058)" gradientUnits="userSpaceOnUse"><stop offset="0" stop-color="#e6e6e6"/><stop offset="0.1" stop-color="#d6d6d6"/><stop offset="0.31" stop-color="#adadad"/><stop offset="0.59" stop-color="#6c6c6c"/><stop offset="0.93" stop-color="#121212"/><stop offset="1"/></radialGradient><radialGradient id="radial-gradient-6" cx="11.29" cy="-6067.57" r="24.16" gradientTransform="matrix(1, 0, 0, -1, 0, -6058)" gradientUnits="userSpaceOnUse"><stop offset="0" stop-color="#fff"/><stop offset="0.34" stop-color="#fdfdfd"/><stop offset="0.48" stop-color="#f6f6f6"/><stop offset="0.58" stop-color="#eaeaea"/><stop offset="0.67" stop-color="#d8d8d8"/><stop offset="0.74" stop-color="#c2c2c2"/><stop offset="0.8" stop-color="#a6a6a6"/><stop offset="0.86" stop-color="#848484"/><stop offset="0.91" stop-color="#5f5f5f"/><stop offset="0.95" stop-color="#404040"/><stop offset="0.96" stop-color="#404040"/><stop offset="1" stop-color="#404040"/><stop offset="1"/></radialGradient><radialGradient id="radial-gradient-7" cx="4.19" cy="-6058.41" r="42.78" gradientTransform="matrix(1, 0, 0, -1, 0, -6058)" gradientUnits="userSpaceOnUse"><stop offset="0.17" stop-color="#fff"/><stop offset="0.2" stop-color="#e0eff7"/><stop offset="0.24" stop-color="#b2d9ec"/><stop offset="0.29" stop-color="#8bc5e2"/><stop offset="0.34" stop-color="#6bb5da"/><stop offset="0.38" stop-color="#52a9d4"/><stop offset="0.44" stop-color="#41a0cf"/><stop offset="0.49" stop-color="#369bcd"/><stop offset="0.56" stop-color="#39c"/><stop offset="0.61" stop-color="#3396c8"/><stop offset="0.66" stop-color="#328ebc"/><stop offset="0.7" stop-color="#3180a8"/><stop offset="0.75" stop-color="#2f6d8c"/><stop offset="0.8" stop-color="#2d5468"/><stop offset="0.85" stop-color="#2a373d"/><stop offset="0.87" stop-color="#292929"/></radialGradient><radialGradient id="radial-gradient-8" cx="4.19" cy="-6058.41" r="42.78" xlink:href="#radial-gradient-7"/><radialGradient id="radial-gradient-9" cx="6.97" cy="-6065.54" r="16.29" xlink:href="#radial-gradient-5"/><linearGradient id="linear-gradient-3" x1="16.44" y1="-6061.47" x2="32.33" y2="-6076.83" gradientTransform="matrix(1, 0, 0, -1, 0, -6058)" gradientUnits="userSpaceOnUse"><stop offset="0" stop-color="#f0f4ff"/><stop offset="0.11" stop-color="#ebeff9"/><stop offset="0.25" stop-color="#dce0ea"/><stop offset="0.4" stop-color="#c4c7cf"/><stop offset="0.57" stop-color="#a2a4ab"/><stop offset="0.75" stop-color="#76777c"/><stop offset="0.93" stop-color="#414243"/><stop offset="1" stop-color="#2b2b2b"/></linearGradient><linearGradient id="linear-gradient-4" x1="3.55" y1="-6074.44" x2="19.44" y2="-6089.79" xlink:href="#linear-gradient-3"/><linearGradient id="linear-gradient-5" x1="11.23" y1="-6068.96" x2="19.47" y2="-6076.92" gradientTransform="matrix(1, 0, 0, -1, 0, -6058)" gradientUnits="userSpaceOnUse"><stop offset="0" stop-color="#c2d7e8"/><stop offset="0.13" stop-color="#bacfe1"/><stop offset="0.34" stop-color="#a4bacd"/><stop offset="0.6" stop-color="#8098ac"/><stop offset="0.89" stop-color="#4e697f"/><stop offset="1" stop-color="#3a566d"/></linearGradient><linearGradient id="linear-gradient-6" x1="7.11" y1="-6070.91" x2="22.84" y2="-6086.11" gradientTransform="matrix(1, 0, 0, -1, 0, -6058)" gradientUnits="userSpaceOnUse"><stop offset="0" stop-color="#f0f4ff"/><stop offset="0.1" stop-color="#e8ebf6"/><stop offset="0.26" stop-color="#d1d4dd"/><stop offset="0.46" stop-color="#abaeb5"/><stop offset="0.7" stop-color="#78797d"/><stop offset="0.96" stop-color="#363637"/><stop offset="1" stop-color="#2b2b2b"/></linearGradient><linearGradient id="linear-gradient-7" x1="18.7" y1="-6076.55" x2="24.22" y2="-6081.88" gradientTransform="matrix(1, 0, 0, -1, 0, -6058)" gradientUnits="userSpaceOnUse"><stop offset="0" stop-color="#d9def0"/><stop offset="0.12" stop-color="#d4daec"/><stop offset="0.26" stop-color="#c7cfe2"/><stop offset="0.41" stop-color="#b0bcd1"/><stop offset="0.57" stop-color="#90a1b8"/><stop offset="0.72" stop-color="#677f99"/><stop offset="0.88" stop-color="#355674"/><stop offset="0.97" stop-color="#173d5d"/></linearGradient><linearGradient id="linear-gradient-8" x1="13.06" y1="-6065.14" x2="28.77" y2="-6080.33" xlink:href="#linear-gradient-3"/></defs><path class="cls-1" d="M18.58.21a18,18,0,1,0,18,18A18,18,0,0,0,18.58.21Zm0,35.18A17.14,17.14,0,1,1,35.72,18.25,17.15,17.15,0,0,1,18.58,35.39Z"/><path class="cls-2" d="M35.84,18.25A17.27,17.27,0,1,1,18.58,1,17.26,17.26,0,0,1,35.84,18.25Z"/><path class="cls-3" d="M35.72,18.25A17.14,17.14,0,1,1,18.58,1.11,17.15,17.15,0,0,1,35.72,18.25Z"/><path class="cls-4" d="M30.07,18.25A11.49,11.49,0,1,1,18.58,6.76,11.5,11.5,0,0,1,30.07,18.25Z"/><polygon points="19.04 6.45 20.23 3.29 20.23 6.45 21.14 6.45 21.14 1.92 19.78 1.92 18.54 5.17 18.55 5.17 17.31 1.92 15.95 1.92 15.95 6.45 16.86 6.45 16.86 3.29 18.05 6.45 19.04 6.45"/><polygon points="31.48 8.48 29.93 10.74 32.36 9.54 33.02 10.34 29.19 12.26 28.42 11.32 29.9 9.08 29.89 9.07 27.43 10.13 26.64 9.2 29.23 5.78 29.89 6.57 28.27 8.75 30.77 7.63 31.48 8.48"/><path class="cls-2" d="M10.56,7.62A1.16,1.16,0,0,0,9.1,7.48a1,1,0,0,0,0-.67,1.61,1.61,0,0,0-.5-.63c-.61-.51-1.25-.07-1.7.47L4.7,9.29,8.17,12.2,10.5,9.43c.53-.64.62-1.27.06-1.81ZM6.06,8.89,7.39,7.31a.53.53,0,0,1,.72,0A.47.47,0,0,1,8.2,8L6.88,9.58Zm3.66.26L8.34,10.8l-.87-.73,1.4-1.66a.57.57,0,0,1,.85.74Z"/><polygon class="cls-5" points="19.05 6.28 20.24 3.11 20.24 6.28 21.15 6.28 21.15 1.75 19.79 1.75 18.55 4.99 18.56 4.99 17.32 1.75 15.96 1.75 15.96 6.28 16.86 6.28 16.86 3.11 18.06 6.28 19.05 6.28"/><polygon class="cls-6" points="31.49 8.18 29.94 10.44 32.37 9.24 33.03 10.03 29.2 11.95 28.43 11.02 29.91 8.78 29.91 8.77 27.44 9.82 26.65 8.89 29.24 5.48 29.89 6.27 28.28 8.45 30.78 7.33 31.49 8.18"/><path class="cls-7" d="M10.39,7.53a1.15,1.15,0,0,0-1.45-.14,1,1,0,0,0,0-.67,1.52,1.52,0,0,0-.49-.63C7.84,5.58,7.2,6,6.74,6.56L4.53,9.2,8,12.11l2.33-2.77c.53-.64.61-1.27.05-1.81ZM5.9,8.8,7.23,7.22a.53.53,0,0,1,.72,0A.46.46,0,0,1,8,7.92L6.72,9.49Zm3.66.26L8.18,10.71,7.31,10l1.4-1.66a.57.57,0,0,1,.85.74Z"/><path class="cls-8" d="M7.47,18.25A11.11,11.11,0,1,1,18.58,29.36,11.12,11.12,0,0,1,7.47,18.25Z"/><path class="cls-9" d="M7.79,18.25A10.79,10.79,0,1,1,18.58,29,10.79,10.79,0,0,1,7.79,18.25Z"/><path class="cls-10" d="M7.78,18.25h10.8V7.45A10.79,10.79,0,0,0,7.78,18.25Z"/><path class="cls-11" d="M18.58,18.25v10.8a10.79,10.79,0,0,0,10.8-10.8Z"/><polygon class="cls-12" points="29.47 18.06 18.77 18.06 18.77 7.36 18.39 7.36 18.39 18.06 7.69 18.06 7.69 18.44 18.39 18.44 18.39 29.14 18.77 29.14 18.77 18.44 29.47 18.44 29.47 18.06"/><path class="cls-13" d="M18.77,7.66a10.59,10.59,0,0,1,10.4,10.4h.19A10.77,10.77,0,0,0,18.77,7.47v.19Z"/><path class="cls-14" d="M8,18.06A10.62,10.62,0,0,1,18.38,7.64V7.45A10.79,10.79,0,0,0,7.78,18.06Z"/><path class="cls-15" d="M18.39,28.84A10.59,10.59,0,0,1,8,18.44H7.8A10.77,10.77,0,0,0,18.39,29v-.19Z"/><path class="cls-16" d="M29.17,18.44a10.59,10.59,0,0,1-10.4,10.4V29A10.77,10.77,0,0,0,29.36,18.44Z"/><polygon class="cls-17" points="18.18 7.45 18.18 17.85 7.79 17.85 7.79 18.05 18.18 18.05 18.39 18.05 18.39 17.85 18.39 7.45 18.18 7.45"/><polygon class="cls-18" points="18.16 28.93 18.16 18.66 7.87 18.66 7.87 18.46 18.16 18.46 18.37 18.46 18.37 18.66 18.37 28.93 18.16 28.93"/><polygon class="cls-19" points="18.99 28.93 18.99 18.66 29.26 18.66 29.26 18.46 18.99 18.46 18.79 18.46 18.79 18.66 18.79 28.93 18.99 28.93"/><polygon class="cls-20" points="18.99 7.54 18.99 17.82 29.26 17.82 29.26 18.02 18.99 18.02 18.79 18.02 18.79 17.82 18.79 7.54 18.99 7.54"/></svg>