<svg id="Layer_1" data-name="Layer 1" xmlns="http://www.w3.org/2000/svg" xmlns:xlink="http://www.w3.org/1999/xlink" viewBox="0 0 135.13 36.5"><defs><style>.cls-1{fill:none;}.cls-2{fill:#231f20;}.cls-3,.cls-62{fill:#fff;}.cls-3{fill-rule:evenodd;}.cls-4{clip-path:url(#clip-path);}.cls-5{fill:url(#linear-gradient);}.cls-6{fill:url(#linear-gradient-2);}.cls-7{fill:url(#linear-gradient-3);}.cls-8{fill:url(#linear-gradient-4);}.cls-9{fill:url(#linear-gradient-5);}.cls-10{fill:#d7d9d2;}.cls-11{fill:#d3d6d0;}.cls-12{fill:#d0d3cd;}.cls-13{fill:#ccd0cb;}.cls-14{fill:#c4cac6;}.cls-15{fill:#c1c7c3;}.cls-16{fill:#bdc4c1;}.cls-17{fill:#b9c1bf;}.cls-18{fill:#b6bebc;}.cls-19{fill:#afb8b7;}.cls-20{fill:#abb5b5;}.cls-21{fill:#a4afb0;}.cls-22{fill:#a1adad;}.cls-23{fill:#9aa7a8;}.cls-24{fill:#97a4a6;}.cls-25{fill:#93a1a3;}.cls-26{fill:#8d9b9f;}.cls-27{fill:#869699;}.cls-28{fill:#7a8a90;}.cls-29{fill:#74858a;}.cls-30{fill:#718288;}.cls-31{fill:#607179;}.cls-32{fill:#5d6f77;}.cls-33{fill:#5b6c74;}.cls-34{fill:#586972;}.cls-35{fill:#55676f;}.cls-36{fill:#53646d;}.cls-37{fill:#50616a;}.cls-38{fill:#4e5e68;}.cls-39{fill:#4b5c65;}.cls-40{fill:#465760;}.cls-41{fill:#41515b;}.cls-42{fill:#3f4f59;}.cls-43{fill:#36444f;}.cls-44{fill:#34424c;}.cls-45{fill:#323f4a;}.cls-46{fill:#2f3d47;}.cls-47{fill:#2d3a45;}.cls-48{fill:#25303b;}.cls-49{fill:#232e38;}.cls-50{fill:#202933;}.cls-51{fill:#1c242e;}.cls-52{fill:#181f29;}.cls-53{fill:#131822;}.cls-54{fill:#e9ebe6;}.cls-55{fill:#92a2a7;}.cls-56{fill:#8d9da3;}.cls-57{fill:#2e3b46;}.cls-58{fill:#242f39;}.cls-59{fill:#161c26;}.cls-60{fill:url(#linear-gradient-6);}.cls-61{fill:url(#linear-gradient-7);}.cls-63{fill:url(#linear-gradient-8);}.cls-64{fill:url(#linear-gradient-9);}.cls-65{fill:#191f28;}.cls-66{fill:#191f29;}.cls-67{fill:#1a202a;}.cls-68{fill:#1b212a;}.cls-69{fill:#1b212b;}.cls-70{fill:#1c222b;}.cls-71{fill:#1c232c;}.cls-72{fill:#1d242d;}.cls-73{fill:#1e242e;}.cls-74{fill:#1e252e;}.cls-75{fill:#1f262f;}.cls-76{fill:#1f2630;}.cls-77{fill:#202731;}.cls-78{fill:#212831;}.cls-79{fill:#212932;}.cls-80{fill:#222932;}.cls-81{fill:#232a33;}.cls-82{fill:#232b34;}.cls-83{fill:#242b35;}.cls-84{fill:#242c35;}.cls-85{fill:#252d36;}.cls-86{fill:#262e37;}.cls-87{fill:#272f38;}.cls-88{fill:#283039;}.cls-89{fill:#28313a;}.cls-90{fill:#29313a;}.cls-91{fill:#2a323b;}.cls-92{fill:#2a333c;}.cls-93{fill:#2b343d;}.cls-94{fill:#2c343d;}.cls-95{fill:#2d353e;}.cls-96{fill:#2d363f;}.cls-97{fill:#2e373f;}.cls-98{fill:#2f3740;}.cls-99{fill:#2f3841;}.cls-100{fill:#303942;}.cls-101{fill:#313a42;}.cls-102{fill:#323a43;}.cls-103{fill:#323b44;}.cls-104{fill:#333c44;}.cls-105{fill:#343d45;}.cls-106{fill:#343d46;}.cls-107{fill:#353e47;}.cls-108{fill:#363f47;}.cls-109{fill:#374048;}.cls-110{fill:#384149;}.cls-111{fill:#39424a;}.cls-112{fill:#3a434b;}.cls-113{fill:#3b444c;}.cls-114{fill:#3c454d;}.cls-115{fill:#3d464e;}.cls-116{fill:#3e474e;}.cls-117{fill:#3f474f;}.cls-118{fill:#404850;}.cls-119{fill:#404951;}.cls-120{fill:#414a51;}.cls-121{fill:#424b52;}.cls-122{fill:#434b53;}.cls-123{fill:#444c53;}.cls-124{fill:#444d54;}.cls-125{fill:#454e55;}.cls-126{fill:#464f56;}.cls-127{fill:#474f56;}.cls-128{fill:#485057;}.cls-129{fill:#495158;}.cls-130{fill:#4a5258;}.cls-131{fill:#4a5259;}.cls-132{fill:#4b535a;}.cls-133{fill:#4c545b;}.cls-134{fill:#4d555b;}.cls-135{fill:#4e565c;}.cls-136{fill:#4f575d;}.cls-137{fill:#50575e;}.cls-138{fill:#51585e;}.cls-139{fill:#52595f;}.cls-140{fill:#525a60;}.cls-141{fill:#535a60;}.cls-142{fill:#545b61;}.cls-143{fill:#555c62;}.cls-144{fill:#565d63;}.cls-145{fill:#575e63;}.cls-146{fill:#585f64;}.cls-147{fill:#595f65;}.cls-148{fill:#5a6066;}.cls-149{fill:#5b6166;}.cls-150{fill:#5c6267;}.cls-151{fill:#5d6368;}.cls-152{fill:#5e6469;}.cls-153{fill:#5f6469;}.cls-154{fill:#454d53;}.cls-155{fill:#454c53;}.cls-156{fill:#444c52;}.cls-157{fill:#444b52;}.cls-158{fill:#434b52;}.cls-159{fill:#434a51;}.cls-160{fill:#424a51;}.cls-161{fill:#424950;}.cls-162{fill:#414950;}.cls-163{fill:#41484f;}.cls-164{fill:#40484f;}.cls-165{fill:#40474f;}.cls-166{fill:#3f474e;}.cls-167{fill:#3e464d;}.cls-168{fill:#3d454d;}.cls-169{fill:#3d454c;}.cls-170{fill:#3c444c;}.cls-171{fill:#3c444b;}.cls-172{fill:#3b434b;}.cls-173{fill:#3b434a;}.cls-174{fill:#3a424a;}.cls-175{fill:#3a4249;}.cls-176{fill:#394149;}.cls-177{fill:#394148;}.cls-178{fill:#384048;}.cls-179{fill:#373f47;}.cls-180{fill:#363e46;}.cls-181{fill:#353e45;}.cls-182{fill:#353d45;}.cls-183{fill:#343c44;}.cls-184{fill:#333b43;}.cls-185{fill:#323b43;}.cls-186{fill:#323a42;}.cls-187{fill:#313942;}.cls-188{fill:#313941;}.cls-189{fill:#303840;}.cls-190{fill:#2f373f;}.cls-191{fill:#2e363e;}.cls-192{fill:#2e353e;}.cls-193{fill:#2d353d;}.cls-194{fill:#2c343c;}.cls-195{fill:#2c333c;}.cls-196{fill:#2b333b;}.cls-197{fill:#2b323b;}.cls-198{fill:#2a323a;}.cls-199{fill:#2a313a;}.cls-200{fill:#293039;}.cls-201{fill:#283038;}.cls-202{fill:#282f38;}.cls-203{fill:#272f37;}.cls-204{fill:#272e37;}.cls-205{fill:#262d36;}.cls-206{fill:#252d35;}.cls-207{fill:#252c35;}.cls-208{fill:#242b34;}.cls-209{fill:#232932;}.cls-210{fill:#212731;}.cls-211{fill:#141822;}.cls-212{fill:#141923;}.cls-213{fill:#151a23;}.cls-214{fill:#151a24;}.cls-215{fill:#161b25;}.cls-216{fill:#171c26;}.cls-217{fill:#171d26;}.cls-218{fill:#171d27;}.cls-219{fill:#181d27;}.cls-220{fill:#181e28;}.cls-221{fill:#1a2029;}.cls-222{fill:#1a212a;}.cls-223{fill:#1b222b;}.cls-224{fill:#1c222c;}.cls-225{fill:#1c232d;}.cls-226{fill:#1d232d;}.cls-227{fill:#1e252f;}.cls-228{fill:#202730;}.cls-229{fill:#212832;}.cls-230{fill:#293139;}.cls-231{fill:#2d343d;}.cls-232{fill:#2f363e;}.cls-233{fill:#30373f;}.cls-234{fill:#313940;}.cls-235{fill:#323941;}.cls-236{fill:#333a42;}.cls-237{fill:#343b43;}.cls-238{fill:#343c43;}.cls-239{fill:#353c44;}.cls-240{fill:#353d44;}.cls-241{fill:#363d45;}.cls-242{fill:#373e45;}.cls-243{fill:#373e46;}.cls-244{fill:#383f46;}.cls-245{fill:#394047;}.cls-246{fill:#3a4148;}.cls-247{fill:url(#linear-gradient-10);}.cls-248{fill:url(#linear-gradient-11);}.cls-249{fill:url(#linear-gradient-12);}.cls-250{fill:url(#radial-gradient);}.cls-251{fill:#63696e;}.cls-252{fill:#4e575e;}.cls-253{fill:url(#linear-gradient-13);}</style><clipPath id="clip-path"><rect class="cls-1" x="0.88" y="1.37" width="132.62" height="33.76"/></clipPath><linearGradient id="linear-gradient" x1="-9685.29" y1="-208.82" x2="-9685.15" y2="-208.82" gradientTransform="matrix(-0.55, -0.96, 0.96, -0.55, -5130.1, -9365.34)" gradientUnits="userSpaceOnUse"><stop offset="0" stop-color="#62686d"/><stop offset="1" stop-color="#4e575e"/></linearGradient><linearGradient id="linear-gradient-2" x1="-5056.09" y1="-2634.51" x2="-5055.94" y2="-2634.51" gradientTransform="translate(398462.33 1265451.67) rotate(45) scale(232.7)" gradientUnits="userSpaceOnUse"><stop offset="0" stop-color="#141d29"/><stop offset="0.17" stop-color="#353c44"/><stop offset="0.5" stop-color="#a5a9ac"/><stop offset="0.83" stop-color="#d7d9d2"/><stop offset="0.95" stop-color="#fbfaf6"/><stop offset="1" stop-color="#fbfaf6"/></linearGradient><linearGradient id="linear-gradient-3" x1="-5056.09" y1="-2634.51" x2="-5055.94" y2="-2634.51" gradientTransform="translate(398462.33 1265451.67) rotate(45) scale(232.7)" gradientUnits="userSpaceOnUse"><stop offset="0" stop-color="#fbfaf6"/><stop offset="0.17" stop-color="#e9ece6"/><stop offset="0.4" stop-color="#b7b9bb"/><stop offset="0.83" stop-color="#2c353d"/><stop offset="0.97" stop-color="#3f464d"/><stop offset="1" stop-color="#3f464d"/></linearGradient><linearGradient id="linear-gradient-4" x1="-5067.05" y1="-2649.73" x2="-5066.9" y2="-2649.73" gradientTransform="matrix(0, 232.7, -232.7, 0, -616570.2, 1179109.56)" gradientUnits="userSpaceOnUse"><stop offset="0" stop-color="#e9ece6"/><stop offset="0.17" stop-color="#5e6469"/><stop offset="0.5" stop-color="#1d232c"/><stop offset="0.83" stop-color="#131822"/><stop offset="0.97" stop-color="#2e353d"/><stop offset="1" stop-color="#2e353d"/></linearGradient><linearGradient id="linear-gradient-5" x1="-5056.09" y1="-2634.76" x2="-5055.94" y2="-2634.76" gradientTransform="translate(398415.39 1265507.37) rotate(45) scale(232.7)" gradientUnits="userSpaceOnUse"><stop offset="0" stop-color="#1d232c"/><stop offset="0.46" stop-color="#3a4148"/><stop offset="0.83" stop-color="#dcddd7"/><stop offset="1" stop-color="#dcddd7"/></linearGradient><linearGradient id="linear-gradient-6" x1="-5064.98" y1="-2653.42" x2="-5064.84" y2="-2653.42" gradientTransform="translate(-535128.8 1021502.84) rotate(90) scale(201.68)" gradientUnits="userSpaceOnUse"><stop offset="0" stop-color="#e9ece6"/><stop offset="0.17" stop-color="#363d44"/><stop offset="0.5" stop-color="#131822"/><stop offset="0.83" stop-color="#3f464d"/><stop offset="0.97" stop-color="#565d63"/><stop offset="1" stop-color="#565d63"/></linearGradient><linearGradient id="linear-gradient-7" x1="-5066.21" y1="-2651.08" x2="-5066.06" y2="-2651.08" gradientTransform="matrix(0, 218.74, -218.74, 0, -579870.31, 1108180.52)" gradientUnits="userSpaceOnUse"><stop offset="0" stop-color="#3a4148"/><stop offset="0.17" stop-color="#2e353d"/><stop offset="0.5" stop-color="#131822"/><stop offset="0.83" stop-color="#363d44"/><stop offset="0.97" stop-color="#d7d9d2"/><stop offset="1" stop-color="#d7d9d2"/></linearGradient><linearGradient id="linear-gradient-8" x1="-5056.09" y1="-2634.51" x2="-5055.94" y2="-2634.51" gradientTransform="translate(398462.33 1265451.67) rotate(45) scale(232.7)" gradientUnits="userSpaceOnUse"><stop offset="0" stop-color="#363d44"/><stop offset="0.24" stop-color="#7a8084"/><stop offset="0.5" stop-color="#5e6469"/><stop offset="0.97" stop-color="#8c9296"/><stop offset="1" stop-color="#8c9296"/></linearGradient><linearGradient id="linear-gradient-9" x1="-5104.26" y1="-2623.5" x2="-5104.11" y2="-2623.5" gradientTransform="translate(-409060.82 -1274319.89) rotate(-135) scale(233.21)" gradientUnits="userSpaceOnUse"><stop offset="0" stop-color="#363d44"/><stop offset="0.5" stop-color="#5e6469"/><stop offset="0.97" stop-color="#8c9296"/><stop offset="1" stop-color="#8c9296"/></linearGradient><linearGradient id="linear-gradient-10" x1="-4787.47" y1="-2481.63" x2="-4787.33" y2="-2481.63" gradientTransform="matrix(9.22, 15.04, 15.04, -9.22, 81466.95, 49157.47)" gradientUnits="userSpaceOnUse"><stop offset="0" stop-color="#fff"/><stop offset="0.94" stop-color="#c0c3c1"/><stop offset="1" stop-color="#c0c3c1"/></linearGradient><linearGradient id="linear-gradient-11" x1="-5081.9" y1="-2949.88" x2="-5081.75" y2="-2949.88" gradientTransform="translate(-92883.26 48110.05) rotate(122.5) scale(17.8)" gradientUnits="userSpaceOnUse"><stop offset="0" stop-color="#fff"/><stop offset="0.9" stop-color="#c0c3c1"/><stop offset="1" stop-color="#c0c3c1"/></linearGradient><linearGradient id="linear-gradient-12" x1="-4798.84" y1="-2463.5" x2="-4798.69" y2="-2463.5" gradientTransform="matrix(17.71, 0.62, -0.62, 17.71, 83498.4, 46615.85)" xlink:href="#linear-gradient-10"/><radialGradient id="radial-gradient" cx="-5036.25" cy="-2601.14" r="0.14" gradientTransform="translate(553288.98 285773.62) scale(109.86)" gradientUnits="userSpaceOnUse"><stop offset="0" stop-color="#cfd1cc"/><stop offset="1" stop-color="#c0c3c1"/></radialGradient><linearGradient id="linear-gradient-13" x1="-5241.61" y1="-2371.14" x2="-5241.47" y2="-2371.14" gradientTransform="translate(44842.21 -99067.16) rotate(-90) scale(18.9)" gradientUnits="userSpaceOnUse"><stop offset="0" stop-color="#3f464d"/><stop offset="0.76" stop-color="#fff"/><stop offset="1" stop-color="#fff"/></linearGradient></defs><path class="cls-2" d="M101.58,22.18H105v-.79h-3.39ZM45.15,16.63l-.3,7.88v.14c0,.67.19.8,1.26.88v.36c-.78-.06-1.08-.07-1.51-.07s-.73,0-1.52.07v-.36c1.07-.08,1.22-.2,1.25-1l.32-7.46V17c0-.7-.21-.85-1.26-.91v-.38a12.19,12.19,0,0,0,1.24.06,11.92,11.92,0,0,0,1.45-.07l2.82,7.68,2.87-7.68a14.24,14.24,0,0,0,1.46.07,11.86,11.86,0,0,0,1.2-.06v.38c-1,.06-1.26.21-1.26.9v.1l.16,7.46c0,.82.16.94,1.25,1v.36a15.1,15.1,0,0,0-3.8,0v-.36c1-.06,1.26-.23,1.26-.94v-.08l-.13-7.87L49.4,23.42l-.18.5-.21.56-.2.58-.17.5h-.23l-.16-.49L48,24.48l-.21-.59-.18-.53Zm11.4,4.9c.15-1.74.73-2.64,1.7-2.64s1.49.85,1.58,2.64Zm2,4c-1.39,0-2-1.06-2-3.43h4.53c0-2.34-1-3.58-2.78-3.58s-3,1.47-3,3.81,1.14,3.7,3.1,3.7a2.55,2.55,0,0,0,2.65-2.49h-.6c-.19,1.29-.86,2-1.93,2M62,19.06v-.27a9.89,9.89,0,0,0,2-.35c.07.56.1.8.13,1.26v.16a1.92,1.92,0,0,1,1.78-1.36,1.23,1.23,0,0,1,1.32,1.23.65.65,0,0,1-.64.73.56.56,0,0,1-.62-.52s0-.09,0-.15l0-.15V19.5c0-.21-.18-.36-.45-.36-.79,0-1.29.95-1.29,2.46v3.17c0,.65.15.77,1.07.82v.3c-.83-.07-1.15-.09-1.68-.09s-.87,0-1.7.09v-.3c.92-.05,1.09-.17,1.09-.82v-5c0-.65-.09-.73-.88-.74Zm11-.7v2.51h-.33c-.28-1.32-.84-2-1.77-2-1.13,0-1.8,1.23-1.8,3.4s.59,3.2,1.76,3.2c.94,0,1.5-.67,1.68-2h.63C73,25.13,72.1,26,70.74,26c-1.76,0-3-1.48-3-3.7s1.21-3.81,3-3.81a2,2,0,0,1,1.55.63l.41-.77Zm2.49,3.17c.16-1.74.73-2.64,1.7-2.64s1.49.85,1.58,2.64Zm2,4c-1.38,0-2-1.06-2-3.43H80c0-2.34-1-3.58-2.78-3.58s-3,1.47-3,3.81,1.14,3.7,3.1,3.7A2.55,2.55,0,0,0,80,23.52h-.6c-.19,1.29-.85,2-1.93,2m6.72.09c-1.09,0-1.67-1.13-1.67-3.31S83.06,19,84.15,19s1.7,1.16,1.7,3.39-.56,3.2-1.66,3.2m2.86-1.29V15.55a14.55,14.55,0,0,1-2.29.41v.26c.95,0,1.07.11,1.07.9v2.65c-.56-.91-1-1.18-1.82-1.18-1.62,0-2.76,1.53-2.76,3.72S82.4,26,84.06,26a2,2,0,0,0,1.88-1.25A5.78,5.78,0,0,0,86.15,26a7.65,7.65,0,0,1,1.78-.37l.23,0v-.25c-1,0-1.11-.11-1.11-1M90,21.53c.15-1.74.73-2.64,1.7-2.64s1.49.85,1.58,2.64Zm2,4c-1.38,0-2-1.06-2-3.43h4.52c0-2.34-1-3.58-2.78-3.58s-3,1.47-3,3.81,1.14,3.7,3.1,3.7a2.56,2.56,0,0,0,2.66-2.49h-.61c-.18,1.29-.85,2-1.93,2m3.81.52V23.49h.34c.27,1.38.91,2.05,2,2.05a1.45,1.45,0,0,0,1.57-1.37c0-.52-.29-.86-1-1.2L98,22.7l-.69-.32c-1.11-.51-1.46-.94-1.46-1.82a2.06,2.06,0,0,1,2.28-2A2.55,2.55,0,0,1,99.7,19l.25-.62h.28v2.35h-.35c-.14-1.21-.64-1.79-1.6-1.79a1.32,1.32,0,0,0-1.42,1.26c0,.61.22.8,1.61,1.41l.63.27c1.16.5,1.57,1,1.57,1.89A2.24,2.24,0,0,1,98.22,26a2.75,2.75,0,0,1-1.82-.63L96,26Zm13.35-5.24a2.06,2.06,0,0,1,1.61.49,2.51,2.51,0,0,1,.55,1.73c0,1.52-.76,2.37-2.11,2.37h-.55c-.8,0-.94-.13-.94-.79v-3.8Zm-1.44-4.6H109c1.28,0,1.84.62,1.84,2a2.38,2.38,0,0,1-.5,1.6c-.34.38-.75.5-1.6.5h-1Zm4.48,2a2.41,2.41,0,0,0-.91-1.93,3.34,3.34,0,0,0-2.1-.54h-4v.38c1.09.06,1.24.18,1.24,1v7.37c0,.82-.12.92-1.24,1v.37H109a4.09,4.09,0,0,0,2.37-.53A2.87,2.87,0,0,0,112.62,23a2.52,2.52,0,0,0-.94-2,2.65,2.65,0,0,0-1.2-.49,2.3,2.3,0,0,0,1.67-2.25m2.95,3.34c.15-1.74.73-2.64,1.7-2.64s1.49.85,1.58,2.64Zm2,4c-1.38,0-2-1.06-2-3.43h4.52c0-2.34-1-3.58-2.78-3.58s-3,1.47-3,3.81S115,26,117,26a2.56,2.56,0,0,0,2.66-2.49H119c-.18,1.29-.85,2-1.93,2m3.33-6.39v-.26a9.33,9.33,0,0,0,2-.45,7.67,7.67,0,0,1,.15,1.32,2.3,2.3,0,0,1,2-1.19,2.11,2.11,0,0,1,2,1.22,3.47,3.47,0,0,1,.23,1.36v3.65c0,.65.15.77,1.07.82v.3a15.26,15.26,0,0,0-3.31,0v-.3c.82,0,1-.18,1-.79V21.08c0-1.32-.39-1.85-1.36-1.85s-1.58.65-1.58,1.89V24.8c0,.61.19.76,1,.79v.3A15.66,15.66,0,0,0,122,25.8a15.94,15.94,0,0,0-1.64.09v-.3c.93-.05,1.08-.17,1.08-.82V19.85c0-.62-.11-.72-.87-.72h-.19m8.1,6.73,4.12-6.78h-1.87c-1,0-1.23.22-1.77,1.58h-.31l.35-2h5.23l-4.14,6.77h1.78c1,0,1.46-.41,1.91-1.79h.32l-.39,2.19Z"/><path class="cls-3" d="M34.53,18.25A16.77,16.77,0,1,1,17.76,1.49,16.76,16.76,0,0,1,34.53,18.25M17.76,35.13A16.89,16.89,0,0,1,5.82,6.31,16.89,16.89,0,0,1,29.7,30.19a16.77,16.77,0,0,1-11.94,4.94"/><g class="cls-4"><path class="cls-3" d="M32.62,18.25A14.86,14.86,0,1,1,17.76,3.39,14.86,14.86,0,0,1,32.62,18.25M17.76,3.53A14.72,14.72,0,1,0,32.48,18.25,14.73,14.73,0,0,0,17.76,3.53"/></g><path class="cls-5" d="M20.26,16.8l.08.05a.18.18,0,0,1-.08-.13Z"/><path class="cls-6" d="M1,18.25A16.81,16.81,0,1,0,17.76,1.44,16.82,16.82,0,0,0,1,18.25m2,0A14.79,14.79,0,1,1,17.76,33,14.79,14.79,0,0,1,3,18.25"/><path class="cls-7" d="M1,18.25A16.81,16.81,0,1,0,17.76,1.44,16.82,16.82,0,0,0,1,18.25m1,0a15.8,15.8,0,1,1,15.8,15.8A15.8,15.8,0,0,1,2,18.25"/><path class="cls-8" d="M17.76,1.52a16.33,16.33,0,1,1,0,32.66v.88a16.81,16.81,0,0,0,0-33.62Z"/><path class="cls-9" d="M2.82,19c-.5,8.08,7.07,15,14.94,15h0V33A14.79,14.79,0,0,1,3,18.25a14.52,14.52,0,0,1,.25-2.73A20.46,20.46,0,0,0,2.82,19"/><g class="cls-4"><path class="cls-10" d="M33.17,20.81c0-.4.06-.72.06-1A1.82,1.82,0,0,0,33,18.75a2,2,0,0,1-.29-.6,6.78,6.78,0,0,1-.16-1.29h.08a6.5,6.5,0,0,0,.16,1.27,2.08,2.08,0,0,0,.28.58,1.83,1.83,0,0,1,.29,1.13c0,.26,0,.57-.06,1Z"/><path class="cls-11" d="M32.5,16.85h.08v.07a5.4,5.4,0,0,0,.15,1.19,2,2,0,0,0,.26.55l0,0a1.68,1.68,0,0,1,.28.85,2.26,2.26,0,0,1,0,.27c0,.26,0,.57-.06,1h-.08a.15.15,0,0,1,0-.07c0-.37,0-.66,0-.9a2.66,2.66,0,0,0,0-.3,1.57,1.57,0,0,0-.26-.78l0-.06a1.75,1.75,0,0,1-.26-.53c0-.08,0-.16-.06-.26s-.07-.56-.1-1"/><path class="cls-12" d="M32.5,16.84h.08a.15.15,0,0,1,0,.07,5.86,5.86,0,0,0,.15,1.18,1.77,1.77,0,0,0,.27.55v0a1.61,1.61,0,0,1,.28.84,2.35,2.35,0,0,1,0,.27c0,.26,0,.57-.05,1h-.09a.13.13,0,0,0,0-.06c0-.37,0-.66,0-.9a2.48,2.48,0,0,0,0-.29,1.54,1.54,0,0,0-.26-.78l0-.06a1.75,1.75,0,0,1-.26-.53,1.72,1.72,0,0,1,0-.26,7.88,7.88,0,0,1-.11-1"/><path class="cls-13" d="M32.5,16.84h.08a.17.17,0,0,1,0,.07,6,6,0,0,0,.15,1.18,1.82,1.82,0,0,0,.27.54v0a1.61,1.61,0,0,1,.28.83,2.44,2.44,0,0,1,0,.27c0,.26,0,.56-.05,1h-.08v-.07c0-.36,0-.65,0-.88a2.66,2.66,0,0,0,0-.3,1.53,1.53,0,0,0-.26-.77l0-.06a1.53,1.53,0,0,1-.25-.53.92.92,0,0,1-.06-.25,7.89,7.89,0,0,1-.11-1"/><path class="cls-14" d="M32.5,16.82h.08a.13.13,0,0,1,0,.06A5.51,5.51,0,0,0,32.75,18a1.81,1.81,0,0,0,.26.54l0,0a1.7,1.7,0,0,1,.27.83,2.26,2.26,0,0,1,0,.27,6.94,6.94,0,0,1-.05.94h-.08s0,0,0-.06c0-.36,0-.64,0-.87s0-.2,0-.29a1.71,1.71,0,0,0-.26-.76.21.21,0,0,1,0-.06,1.8,1.8,0,0,1-.25-.52l-.06-.25a7.7,7.7,0,0,1-.11-1"/><path class="cls-15" d="M32.5,16.81h.08a.13.13,0,0,1,0,.06A5.63,5.63,0,0,0,32.75,18a2.18,2.18,0,0,0,.26.53l0,0a1.7,1.7,0,0,1,.27.82,2.26,2.26,0,0,1,0,.27,8.66,8.66,0,0,1,0,.94h-.08v-.06c0-.36,0-.64,0-.87a2.62,2.62,0,0,0,0-.29,1.63,1.63,0,0,0-.26-.75.21.21,0,0,1,0-.06,2.1,2.1,0,0,1-.25-.52c0-.07,0-.15-.06-.25a9.41,9.41,0,0,1-.11-1"/><path class="cls-16" d="M32.51,16.8h.07s0,0,0,.06A5.61,5.61,0,0,0,32.75,18a2,2,0,0,0,.26.52l0,0a1.66,1.66,0,0,1,.27.81,2.35,2.35,0,0,1,0,.27,8.5,8.5,0,0,1,0,.93h-.08V20.5a7.11,7.11,0,0,0,0-.86,2.44,2.44,0,0,0,0-.28,1.63,1.63,0,0,0-.26-.75l0-.06a2.1,2.1,0,0,1-.25-.52q0-.11-.06-.24a7.65,7.65,0,0,1-.1-1"/><path class="cls-17" d="M32.51,16.8h.07a.13.13,0,0,1,0,.06A5.37,5.37,0,0,0,32.75,18a2,2,0,0,0,.26.52l0,0a1.62,1.62,0,0,1,.27.81c0,.08,0,.16,0,.26s0,.54,0,.92h-.08s0,0,0-.06a7.11,7.11,0,0,0,0-.86,2.44,2.44,0,0,0,0-.28,1.71,1.71,0,0,0-.26-.75l0,0a1.72,1.72,0,0,1-.24-.51,1.26,1.26,0,0,1-.07-.25,7.47,7.47,0,0,1-.1-1"/><path class="cls-18" d="M32.51,16.79h.07a.13.13,0,0,1,0,.06A5.36,5.36,0,0,0,32.75,18a2,2,0,0,0,.26.52l0,0a1.58,1.58,0,0,1,.27.8c0,.08,0,.17,0,.26a8.64,8.64,0,0,1,0,.92H33.2s0,0,0,0a6.88,6.88,0,0,0,0-.86,2.53,2.53,0,0,0,0-.28,1.67,1.67,0,0,0-.26-.74l0,0a1.72,1.72,0,0,1-.24-.51,1.4,1.4,0,0,1-.06-.24,5.94,5.94,0,0,1-.11-1"/><path class="cls-19" d="M32.51,16.77h.07a.11.11,0,0,1,0,.05,5.06,5.06,0,0,0,.17,1.12,2.42,2.42,0,0,0,.25.51l0,0a1.62,1.62,0,0,1,.27.8,1.81,1.81,0,0,1,0,.25c0,.24,0,.53,0,.91H33.2v-.05c0-.35,0-.62,0-.84s0-.2,0-.28a1.59,1.59,0,0,0-.26-.73l0-.05a2.12,2.12,0,0,1-.25-.5q0-.11-.06-.24a5.79,5.79,0,0,1-.11-1"/><path class="cls-20" d="M32.51,16.76h.07a.13.13,0,0,1,0,.06,5,5,0,0,0,.17,1.1,2.2,2.2,0,0,0,.25.51l0,0a1.58,1.58,0,0,1,.27.79,2,2,0,0,1,0,.25,7.82,7.82,0,0,1,0,.9h-.07s0,0,0-.06c0-.34,0-.61,0-.83s0-.19,0-.28A1.59,1.59,0,0,0,33,18.5l0-.05a2.12,2.12,0,0,1-.25-.5q0-.11-.06-.24a5.51,5.51,0,0,1-.11-.95"/><path class="cls-21" d="M32.51,16.75h.07a.13.13,0,0,1,0,.06,5,5,0,0,0,.17,1.09,2,2,0,0,0,.26.5v0a1.54,1.54,0,0,1,.27.77,2,2,0,0,1,0,.25,7.34,7.34,0,0,1,0,.89h-.08v-.06a6.24,6.24,0,0,0,0-.82,2.13,2.13,0,0,0,0-.27,1.5,1.5,0,0,0-.26-.71l0-.05a1.86,1.86,0,0,1-.24-.49.84.84,0,0,1-.06-.24,5.18,5.18,0,0,1-.12-.93"/><path class="cls-22" d="M32.51,16.74h.07s0,0,0,.05a4.49,4.49,0,0,0,.16,1.08,1.75,1.75,0,0,0,.26.49v0a1.47,1.47,0,0,1,.27.77,1.66,1.66,0,0,1,0,.24,7.34,7.34,0,0,1,0,.89h-.07s0,0,0-.05a6.24,6.24,0,0,0,0-.82,2.13,2.13,0,0,0,0-.27,1.62,1.62,0,0,0-.25-.7l0-.06a2,2,0,0,1-.24-.48c0-.07,0-.14-.06-.23a6.3,6.3,0,0,1-.12-.93"/><path class="cls-23" d="M32.51,16.72h.07l0,.05a3.91,3.91,0,0,0,.17,1.07,2.17,2.17,0,0,0,.25.48v0a1.47,1.47,0,0,1,.27.75,2,2,0,0,1,0,.25,7,7,0,0,1,0,.87h-.07v-.05a7.81,7.81,0,0,0,0-.8,2.13,2.13,0,0,0,0-.27,1.62,1.62,0,0,0-.25-.7l0-.05a2.29,2.29,0,0,1-.24-.47l-.06-.23a6.32,6.32,0,0,1-.12-.92"/><path class="cls-24" d="M32.51,16.72h.07s0,0,0,.05a3.82,3.82,0,0,0,.17,1.06,2.17,2.17,0,0,0,.25.48v0a1.47,1.47,0,0,1,.27.75,2,2,0,0,1,0,.25,6.62,6.62,0,0,1,0,.86h-.08s0,0,0,0a7.81,7.81,0,0,0,0-.8,2.13,2.13,0,0,0,0-.27,1.62,1.62,0,0,0-.25-.69l0-.05a1.9,1.9,0,0,1-.25-.47c0-.07,0-.14-.06-.23a6,6,0,0,1-.12-.9"/><path class="cls-25" d="M32.51,16.71h.07a.17.17,0,0,1,0,.05,4.15,4.15,0,0,0,.17,1.05,2.17,2.17,0,0,0,.25.48v0a1.47,1.47,0,0,1,.27.75,1.66,1.66,0,0,1,0,.24,5.21,5.21,0,0,1,0,.86h-.07s0,0,0-.05a5.54,5.54,0,0,0,0-.79,2,2,0,0,0,0-.26,1.57,1.57,0,0,0-.25-.69l0-.05a1.6,1.6,0,0,1-.24-.47,1.14,1.14,0,0,1-.07-.22,6.18,6.18,0,0,1-.12-.9"/><path class="cls-26" d="M32.51,16.69h.07s0,0,0,0a4.05,4.05,0,0,0,.17,1,2.34,2.34,0,0,0,.25.47l0,0a1.71,1.71,0,0,1,.27.73,2.32,2.32,0,0,0,0,.24c0,.22,0,.5,0,.84h-.08s0,0,0-.05a7.39,7.39,0,0,0,0-.78l0-.26a1.49,1.49,0,0,0-.25-.67l0,0a1.81,1.81,0,0,1-.24-.46l-.06-.22a4.62,4.62,0,0,1-.13-.89"/><path class="cls-27" d="M32.51,16.68h.07s0,0,0,0a3.45,3.45,0,0,0,.18,1,2,2,0,0,0,.24.46l0,0a1.67,1.67,0,0,1,.27.72c0,.07,0,.15,0,.23a6.13,6.13,0,0,1,0,.83h-.07s0,0,0-.05a7.16,7.16,0,0,0,0-.77l0-.25a1.49,1.49,0,0,0-.25-.66l0-.05a2.2,2.2,0,0,1-.24-.46q0-.09-.06-.21a5.64,5.64,0,0,1-.13-.87"/><path class="cls-28" d="M32.52,16.64h.06l0,0a3.63,3.63,0,0,0,.18,1,2.17,2.17,0,0,0,.25.45v0a1.71,1.71,0,0,1,.27.7,1.5,1.5,0,0,1,0,.22,5.61,5.61,0,0,1,0,.81h-.07s0,0,0,0a4.82,4.82,0,0,0,0-.75,2,2,0,0,0,0-.25,1.75,1.75,0,0,0-.25-.64l0,0a1.85,1.85,0,0,1-.24-.44l-.06-.21a3.72,3.72,0,0,1-.13-.85"/><path class="cls-29" d="M32.52,16.63h.06s0,0,0,0a3.45,3.45,0,0,0,.19,1,2.06,2.06,0,0,0,.24.44v0a1.67,1.67,0,0,1,.27.68,1.64,1.64,0,0,1,0,.23,5.14,5.14,0,0,1,0,.79h-.07s0,0,0,0a4.52,4.52,0,0,0,0-.74,1.66,1.66,0,0,0,0-.24,1.63,1.63,0,0,0-.25-.63l0,0a1.83,1.83,0,0,1-.23-.44.93.93,0,0,1-.07-.2,3.51,3.51,0,0,1-.13-.83"/><path class="cls-30" d="M32.52,16.62h.06l0,0a3.45,3.45,0,0,0,.19,1,2.06,2.06,0,0,0,.24.44v0a1.62,1.62,0,0,1,.27.68,1.38,1.38,0,0,1,0,.22,5,5,0,0,1,0,.78h-.07s0,0,0,0a6.15,6.15,0,0,0,0-.73c0-.09,0-.16,0-.24a1.65,1.65,0,0,0-.25-.62l0-.05a1.69,1.69,0,0,1-.23-.42,1,1,0,0,1-.07-.21,3.5,3.5,0,0,1-.13-.82"/><path class="cls-31" d="M32.52,16.57h.06s0,0,0,0a3.19,3.19,0,0,0,.2.91,2.71,2.71,0,0,0,.23.41l0,0a1.69,1.69,0,0,1,.26.64l0,.21a4.65,4.65,0,0,1,0,.75h-.06s0,0,0,0a5.15,5.15,0,0,0,0-.7l0-.23A1.74,1.74,0,0,0,33,18l0,0a2.2,2.2,0,0,1-.23-.4c0-.06,0-.13-.07-.2a3.68,3.68,0,0,1-.14-.78"/><path class="cls-32" d="M32.52,16.56h.06s0,0,0,0a2.85,2.85,0,0,0,.19.9,2.71,2.71,0,0,0,.23.41l0,0a1.58,1.58,0,0,1,.26.63l0,.21a4.48,4.48,0,0,1,0,.75h-.07s0,0,0,0a5,5,0,0,0,0-.69l0-.22A1.66,1.66,0,0,0,33,18l0,0a2.2,2.2,0,0,1-.23-.4c0-.06,0-.12-.07-.19a3.68,3.68,0,0,1-.14-.78"/><path class="cls-33" d="M32.52,16.56h.06l0,0a2.78,2.78,0,0,0,.19.89,2.75,2.75,0,0,0,.24.41v0a1.58,1.58,0,0,1,.26.63l0,.2a4.38,4.38,0,0,1,0,.74h-.06l0,0a3.82,3.82,0,0,0,0-.69,1.46,1.46,0,0,0,0-.22A1.61,1.61,0,0,0,33,18l0,0a2.2,2.2,0,0,1-.23-.4c0-.06,0-.12-.07-.19a3.58,3.58,0,0,1-.14-.76"/><path class="cls-34" d="M32.52,16.55h.06s0,0,0,0a2.43,2.43,0,0,0,.2.88,1.74,1.74,0,0,0,.23.4v0a1.71,1.71,0,0,1,.26.63l0,.2a4.38,4.38,0,0,1,0,.74h-.06s0,0,0,0a3.59,3.59,0,0,0,0-.67,1.43,1.43,0,0,0,0-.23,1.56,1.56,0,0,0-.24-.57l0,0a3,3,0,0,1-.23-.4,1.89,1.89,0,0,1-.06-.18,3,3,0,0,1-.15-.76"/><path class="cls-35" d="M32.52,16.54h.06s0,0,0,0A2.2,2.2,0,0,0,33,17.83v0a1.59,1.59,0,0,1,.26.62l0,.2a3.43,3.43,0,0,1,0,.73h-.06s0,0,0,0c0-.27,0-.49,0-.67s0-.16,0-.22a1.56,1.56,0,0,0-.24-.57l0,0a2.46,2.46,0,0,1-.22-.39,1.07,1.07,0,0,1-.07-.19,2.8,2.8,0,0,1-.15-.75"/><path class="cls-36" d="M32.52,16.53h.06s0,0,0,0a2.42,2.42,0,0,0,.2.87,2.5,2.5,0,0,0,.23.39v0a1.61,1.61,0,0,1,.26.61,1.38,1.38,0,0,1,0,.2,4.13,4.13,0,0,1,0,.73H33.3s0,0,0,0a4.59,4.59,0,0,0,0-.66,1.43,1.43,0,0,0,0-.22,1.58,1.58,0,0,0-.24-.56l0,0a3.61,3.61,0,0,1-.22-.39,1.71,1.71,0,0,1-.07-.18,3.38,3.38,0,0,1-.15-.75"/><path class="cls-37" d="M32.52,16.52h.06s0,0,0,0a2.41,2.41,0,0,0,.2.86,2.5,2.5,0,0,0,.23.39v0a1.54,1.54,0,0,1,.26.61,1.06,1.06,0,0,1,0,.2,3.16,3.16,0,0,1,0,.71H33.3l0,0a4.59,4.59,0,0,0,0-.66,1.43,1.43,0,0,0,0-.22,1.46,1.46,0,0,0-.24-.55l0,0a3.61,3.61,0,0,1-.22-.39,1.71,1.71,0,0,1-.07-.18,3.16,3.16,0,0,1-.15-.74"/><path class="cls-38" d="M32.52,16.52h.06l0,0a2.41,2.41,0,0,0,.2.86,3,3,0,0,0,.23.38v0a1.5,1.5,0,0,1,.26.6,1.18,1.18,0,0,1,0,.2,3.93,3.93,0,0,1,0,.7H33.3l0,0a3.48,3.48,0,0,0,0-.66,1.12,1.12,0,0,0,0-.21,1.46,1.46,0,0,0-.24-.55l0-.05a2.58,2.58,0,0,1-.22-.37,1.34,1.34,0,0,0-.07-.18,3.17,3.17,0,0,1-.15-.73"/><path class="cls-39" d="M32.52,16.51h.06s0,0,0,0a2.34,2.34,0,0,0,.2.84,2.4,2.4,0,0,0,.23.38v0a1.45,1.45,0,0,1,.26.59,1.18,1.18,0,0,1,0,.2,4.93,4.93,0,0,1,0,.7h-.06s0,0,0,0a4.31,4.31,0,0,0,0-.65,1.3,1.3,0,0,0,0-.21,1.41,1.41,0,0,0-.24-.54l0,0a1.93,1.93,0,0,1-.23-.37c0-.05,0-.11-.07-.17a3.42,3.42,0,0,1-.15-.73"/><path class="cls-40" d="M32.53,16.49h0s0,0,0,0a2.18,2.18,0,0,0,.21.82,3.44,3.44,0,0,0,.22.38h0a1.45,1.45,0,0,1,.26.59,1.06,1.06,0,0,1,0,.19,3.7,3.7,0,0,1,0,.69h-.06s0,0,0,0a4.18,4.18,0,0,0,0-.64,1.18,1.18,0,0,0,0-.2,1.48,1.48,0,0,0-.24-.54l0,0a1.82,1.82,0,0,1-.22-.36,1,1,0,0,1-.07-.18,2.3,2.3,0,0,1-.15-.71"/><path class="cls-41" d="M32.53,16.48h0s0,0,0,0a2.39,2.39,0,0,0,.21.81,3.13,3.13,0,0,0,.22.36l0,0a1.57,1.57,0,0,1,.25.57,1.06,1.06,0,0,1,0,.19,3.45,3.45,0,0,1,0,.68h-.06s0,0,0,0a2.91,2.91,0,0,0,0-.62,1.3,1.3,0,0,0,0-.21,1.64,1.64,0,0,0-.23-.52l0,0a2.46,2.46,0,0,1-.22-.36,1.47,1.47,0,0,1-.07-.17,2.15,2.15,0,0,1-.15-.69"/><path class="cls-42" d="M32.53,16.47h0s0,0,0,0a2.32,2.32,0,0,0,.21.8,3.13,3.13,0,0,0,.22.36l0,0a1.49,1.49,0,0,1,.25.57,1,1,0,0,1,0,.18,3.38,3.38,0,0,1,0,.67h-.06s0,0,0,0a2.91,2.91,0,0,0,0-.62l0-.2a1.67,1.67,0,0,0-.24-.52l0,0a3,3,0,0,1-.22-.35,1.22,1.22,0,0,0-.07-.17,2.22,2.22,0,0,1-.15-.69"/><path class="cls-43" d="M32.53,16.44h0s0,0,0,0a2,2,0,0,0,.22.77c.07.13.14.23.22.35h0a1.65,1.65,0,0,1,.26.55l0,.17a2.57,2.57,0,0,1,0,.65h-.06s0,0,0,0a3.39,3.39,0,0,0,0-.59c0-.08,0-.14,0-.2a1.79,1.79,0,0,0-.24-.5l0,0a2.84,2.84,0,0,1-.22-.34c0-.05,0-.1-.07-.16a2.36,2.36,0,0,1-.16-.66"/><path class="cls-44" d="M32.53,16.43h0s0,0,0,0a2,2,0,0,0,.22.76c.07.12.14.22.22.34h0a1.7,1.7,0,0,1,.26.54c0,.05,0,.11,0,.18a3,3,0,0,1,0,.63h-.08a2.63,2.63,0,0,0,0-.59c0-.07,0-.14,0-.2a1.72,1.72,0,0,0-.24-.49l0,0a2.84,2.84,0,0,1-.22-.34s0-.1-.07-.16a2.19,2.19,0,0,1-.16-.65"/><path class="cls-45" d="M32.53,16.42h.08a2.24,2.24,0,0,0,.22.75,3.78,3.78,0,0,0,.22.33v0a1.54,1.54,0,0,1,.26.53c0,.06,0,.11,0,.18a3,3,0,0,1,0,.63h0s0,0,0,0a2.57,2.57,0,0,0,0-.58c0-.07,0-.13,0-.19a1.72,1.72,0,0,0-.24-.49l0,0a1.94,1.94,0,0,1-.21-.34,1,1,0,0,1-.08-.15,2.28,2.28,0,0,1-.16-.65"/><path class="cls-46" d="M32.53,16.41h0s0,0,0,0a1.9,1.9,0,0,0,.23.74,2.3,2.3,0,0,0,.21.33v0a1.59,1.59,0,0,1,.26.52c0,.06,0,.12,0,.18a3.64,3.64,0,0,1,0,.62h-.08a3.22,3.22,0,0,0,0-.58c0-.07,0-.13,0-.19a1.8,1.8,0,0,0-.24-.48l0,0a2.3,2.3,0,0,1-.21-.33l-.08-.15a2.28,2.28,0,0,1-.16-.65"/><path class="cls-47" d="M32.53,16.4h0s0,0,0,0a1.84,1.84,0,0,0,.23.73,2.3,2.3,0,0,0,.21.33v0a1.49,1.49,0,0,1,.26.52s0,.11,0,.17a2.84,2.84,0,0,1,0,.62h0s0,0,0,0a3.11,3.11,0,0,0,0-.57.8.8,0,0,0,0-.18,1.79,1.79,0,0,0-.23-.48l0,0c-.07-.1-.14-.2-.21-.32A1,1,0,0,1,32.7,17a2,2,0,0,1-.17-.64"/><path class="cls-48" d="M32.53,16.37h.09a1.6,1.6,0,0,0,.22.7,3.62,3.62,0,0,0,.22.32h0a1.58,1.58,0,0,1,.26.5c0,.05,0,.1,0,.16a2.17,2.17,0,0,1,0,.6h-.08a2.88,2.88,0,0,0,0-.55c0-.07,0-.13,0-.18a1.73,1.73,0,0,0-.23-.45l0,0a1.69,1.69,0,0,1-.21-.31S32.73,17,32.7,17a2,2,0,0,1-.17-.61"/><path class="cls-49" d="M32.53,16.36h.09a1.52,1.52,0,0,0,.23.7,2.82,2.82,0,0,0,.21.31h0a1.61,1.61,0,0,1,.25.49.75.75,0,0,1,0,.16,2.09,2.09,0,0,1,0,.59h-.08a2.77,2.77,0,0,0,0-.54c0-.07,0-.12,0-.18a1.9,1.9,0,0,0-.23-.45l0,0-.21-.3L32.7,17a2,2,0,0,1-.17-.61"/><path class="cls-50" d="M32.53,16.35h.09a1.43,1.43,0,0,0,.23.67,2,2,0,0,0,.21.3v0a1.62,1.62,0,0,1,.25.47.94.94,0,0,1,0,.16,2.4,2.4,0,0,1,.06.58h-.08a2.65,2.65,0,0,0-.05-.53c0-.06,0-.12,0-.17A1.83,1.83,0,0,0,33,17.4l0,0-.21-.3s-.05-.09-.07-.14a1.65,1.65,0,0,1-.18-.58"/><path class="cls-51" d="M32.54,16.33h.08a1.43,1.43,0,0,0,.23.66l.21.29v0a1.44,1.44,0,0,1,.25.46s0,.1,0,.16a2.28,2.28,0,0,1,.05.56h-.08a2.62,2.62,0,0,0-.05-.52.75.75,0,0,0,0-.16,1.76,1.76,0,0,0-.23-.43l0,0c-.07-.1-.14-.19-.2-.29l-.08-.13a1.53,1.53,0,0,1-.17-.58"/><path class="cls-52" d="M32.54,16.32h.08a1.38,1.38,0,0,0,.24.64c.06.1.13.19.2.29h0a2.12,2.12,0,0,1,.25.45c0,.05,0,.1,0,.16a2.15,2.15,0,0,1,.06.55h-.08a1.83,1.83,0,0,0-.06-.51.84.84,0,0,0,0-.17,2,2,0,0,0-.22-.41l0,0c-.06-.1-.13-.18-.2-.28l-.08-.13a1.68,1.68,0,0,1-.17-.56"/><path class="cls-53" d="M33.35,18.3a1.93,1.93,0,0,0-.1-.65,2.21,2.21,0,0,0-.25-.43,2.28,2.28,0,0,1-.28-.39,1.49,1.49,0,0,1-.18-.54h.08a1.82,1.82,0,0,0,.44.9,1.55,1.55,0,0,1,.26.44,1.84,1.84,0,0,1,.12.68Z"/><path class="cls-54" d="M1,17.92a3.41,3.41,0,0,1,.16-1.06,1.3,1.3,0,0,1,.31-.5A1.63,1.63,0,0,0,2,15.23H2.1a2.09,2.09,0,0,1-.25.79,2.15,2.15,0,0,1-.32.39,1.18,1.18,0,0,0-.29.46,3.57,3.57,0,0,0-.16,1Z"/><path class="cls-55" d="M2.05,15.52a3.82,3.82,0,0,1-.2.86c0,.06-.06.11-.08.16a1.38,1.38,0,0,1-.22.29L1.44,17a1.47,1.47,0,0,0-.21.38,1.19,1.19,0,0,0-.05.22,4.29,4.29,0,0,0-.07.5c0,.13,0,.27,0,.4s0,0,0,0H1c0-.14,0-.29,0-.44a3.41,3.41,0,0,1,.06-.51,1.17,1.17,0,0,1,.06-.2,1.1,1.1,0,0,1,.23-.42l.09-.11a1.05,1.05,0,0,0,.22-.28,3.2,3.2,0,0,0,.27-1h.08Z"/><path class="cls-56" d="M2.05,15.54a5.34,5.34,0,0,1-.2.86,1.19,1.19,0,0,1-.08.16,1.17,1.17,0,0,1-.22.3L1.44,17a1.47,1.47,0,0,0-.21.38l-.06.22c0,.13,0,.31,0,.5s0,.28,0,.41,0,0,0,0H1c0-.14,0-.3,0-.44a3.11,3.11,0,0,1,.06-.51c0-.08,0-.14,0-.21a1.26,1.26,0,0,1,.24-.42l.1-.11a2,2,0,0,0,.21-.28,3.27,3.27,0,0,0,.27-1h.08Z"/><path class="cls-57" d="M2,16a9.6,9.6,0,0,1-.15,1,1.05,1.05,0,0,1-.05.19.9.9,0,0,1-.2.35l-.12.13a1.26,1.26,0,0,0-.24.42c0,.07,0,.15-.06.25a4.33,4.33,0,0,0,0,.55c0,.17,0,.33,0,.46v0H1.06c0-.13,0-.31,0-.49s0-.42,0-.57L1.15,18a1.09,1.09,0,0,1,.26-.47l.1-.11a.77.77,0,0,0,.2-.34A8.49,8.49,0,0,0,1.91,16v0H2Z"/><path class="cls-58" d="M2,16s-.06.59-.14,1a1.17,1.17,0,0,1-.05.2.83.83,0,0,1-.2.36l-.12.13a1,1,0,0,0-.24.43q0,.11-.06.24a4.56,4.56,0,0,0,0,.57c0,.17,0,.33,0,.46s0,0,0,0H1.07a4.07,4.07,0,0,1,0-.51,4.67,4.67,0,0,1,0-.57c0-.09,0-.16,0-.23a1.19,1.19,0,0,1,.27-.48l.11-.12a.93.93,0,0,0,.2-.34A9.14,9.14,0,0,0,1.9,16v0H2Z"/><path class="cls-59" d="M2,16.09s-.05.6-.13,1c0,.08,0,.14,0,.2a1,1,0,0,1-.2.38l-.12.13a1,1,0,0,0-.25.43c0,.08,0,.16-.06.26a4.56,4.56,0,0,0,0,.57c0,.18,0,.35,0,.47v0H1.07c0-.13,0-.32,0-.52a4.73,4.73,0,0,1,0-.58c0-.09,0-.17,0-.24a1.12,1.12,0,0,1,.27-.48l.11-.13a.7.7,0,0,0,.2-.35c.08-.35.15-1,.17-1.18v0Z"/><path class="cls-53" d="M1.06,19.12a4.91,4.91,0,0,1,0-.59,1.31,1.31,0,0,1,.32-.73,1,1,0,0,0,.31-.48,10.46,10.46,0,0,0,.17-1.21H2a11.21,11.21,0,0,1-.17,1.23,1.07,1.07,0,0,1-.32.51,1.17,1.17,0,0,0-.31.69,4.62,4.62,0,0,0,0,.58c0,.19,0,.38,0,.51H1.08c0-.12,0-.31,0-.51"/></g><path class="cls-60" d="M17.68,2.32h0a16.06,16.06,0,0,0-15.81,14c0,.28,0,.43-.07.62a1.22,1.22,0,0,1-.32.83c-.24.25-.42.53-.4,1.46a15.8,15.8,0,0,0,1.77,6.31,14.4,14.4,0,0,0,6,6A16.38,16.38,0,0,1,2,18.25a15.8,15.8,0,0,1,15.8-15.8V2.32Z"/><path class="cls-61" d="M16.88,2.47v.1a15.54,15.54,0,0,1,15.6,13.54,1.85,1.85,0,0,0,.43,1,1.73,1.73,0,0,1,.41,1.27A15.6,15.6,0,0,1,17.68,33.93v.12h.08a15.8,15.8,0,1,0,0-31.6Z"/><g class="cls-4"><path class="cls-53" d="M6.66,7.23a15.64,15.64,0,1,0,11.1-4.62A15.72,15.72,0,0,0,6.66,7.23M1.86,18.34a15.91,15.91,0,1,1,15.9,15.87A15.95,15.95,0,0,1,1.86,18.34"/><path class="cls-53" d="M6.66,7.12A15.64,15.64,0,1,0,17.76,2.5,15.7,15.7,0,0,0,6.66,7.12M1.86,18.23A15.91,15.91,0,1,1,17.76,34.1,15.94,15.94,0,0,1,1.86,18.23"/><path class="cls-62" d="M6.67,7.19A15.62,15.62,0,1,0,17.76,2.57,15.67,15.67,0,0,0,6.67,7.19M1.84,18.29A15.92,15.92,0,1,1,17.76,34.17,16,16,0,0,1,1.84,18.29"/></g><path class="cls-63" d="M1,18.25A16.81,16.81,0,1,0,17.76,1.44,16.82,16.82,0,0,0,1,18.25m.1,0A16.71,16.71,0,1,1,17.76,35,16.71,16.71,0,0,1,1.05,18.25"/><path class="cls-64" d="M2.87,18.25A14.89,14.89,0,1,0,17.76,3.36,14.89,14.89,0,0,0,2.87,18.25m.1,0A14.79,14.79,0,1,1,17.76,33,14.79,14.79,0,0,1,3,18.25"/><g class="cls-4"><path class="cls-65" d="M17.76,3V18.43L20.27,17,18.37,3.47A1.69,1.69,0,0,0,17.76,3"/><path class="cls-66" d="M17.76,3V18.42s2.5-1.46,2.49-1.53L18.36,3.47a1.7,1.7,0,0,0-.6-.52"/><path class="cls-67" d="M17.76,3V18.42a23.7,23.7,0,0,0,2.47-1.61L18.36,3.47a1.51,1.51,0,0,0-.6-.52"/><path class="cls-68" d="M17.76,3V18.41a16.39,16.39,0,0,0,2.45-1.68S18.35,3.47,18.35,3.47A1.53,1.53,0,0,0,17.76,3"/><path class="cls-69" d="M17.76,3V18.41c.06-.05,2.44-1.5,2.42-1.76,0,0-1.84-13.18-1.84-13.19A1.65,1.65,0,0,0,17.76,3"/><path class="cls-70" d="M17.76,3V18.4c.07,0,2.42-1.5,2.4-1.83,0,0-1.83-13.1-1.83-13.11A1.56,1.56,0,0,0,17.76,3"/><path class="cls-71" d="M17.76,3V18.4c.09-.07,2.41-1.52,2.38-1.92,0,0-1.81-13-1.81-13A1.48,1.48,0,0,0,17.76,3"/><path class="cls-72" d="M17.76,3V18.4c.11-.08,2.39-1.53,2.36-2,0,0-1.79-12.93-1.79-12.94A1.57,1.57,0,0,0,17.76,3"/><path class="cls-73" d="M17.76,3V18.39c.12-.09,2.38-1.54,2.34-2.07,0,0-1.78-12.85-1.78-12.86A1.49,1.49,0,0,0,17.76,3"/><path class="cls-74" d="M17.76,3V18.39c.14-.1,2.36-1.55,2.31-2.15,0,0-1.75-12.77-1.75-12.78A1.41,1.41,0,0,0,17.76,3"/><path class="cls-75" d="M17.76,3V18.38c.16-.11,2.35-1.56,2.29-2.22,0-.06-1.74-12.69-1.74-12.71a1.44,1.44,0,0,0-.56-.5"/><path class="cls-76" d="M17.76,3V18.38c.17-.12,2.33-1.58,2.27-2.31,0-.06-1.72-12.6-1.72-12.62a1.44,1.44,0,0,0-.56-.5"/><path class="cls-77" d="M17.76,3V18.37C18,18.24,20.08,16.79,20,16c0-.07-1.7-12.52-1.71-12.54a1.38,1.38,0,0,0-.55-.5"/><path class="cls-78" d="M17.76,3V18.37c.21-.14,2.3-1.6,2.23-2.46,0-.07-1.69-12.44-1.69-12.46a1.38,1.38,0,0,0-.55-.5"/><path class="cls-79" d="M17.76,3V18.36c.22-.15,2.28-1.6,2.21-2.53,0-.08-1.67-12.36-1.68-12.38a1.32,1.32,0,0,0-.54-.5"/><path class="cls-80" d="M17.76,3V18.36C18,18.19,20,16.74,20,15.75c0-.09-1.66-12.28-1.66-12.3a1.32,1.32,0,0,0-.54-.5"/><path class="cls-81" d="M17.76,3l0,15.4c.25-.17,2.24-1.62,2.16-2.69,0-.09-1.64-12.19-1.64-12.21a1.33,1.33,0,0,0-.54-.5"/><path class="cls-82" d="M17.76,3l0,15.4c.26-.19,2.23-1.64,2.14-2.77,0-.09-1.63-12.11-1.63-12.14A1.35,1.35,0,0,0,17.76,3"/><path class="cls-83" d="M17.76,3l0,15.4c.28-.2,2.21-1.65,2.12-2.85,0-.1-1.61-12-1.61-12.06A1.44,1.44,0,0,0,17.76,3"/><path class="cls-84" d="M17.76,3l0,15.39c.29-.21,2.19-1.66,2.1-2.92,0-.11-1.59-11.95-1.6-12A1.23,1.23,0,0,0,17.76,3"/><path class="cls-85" d="M17.76,3l0,15.39c.31-.22,2.18-1.68,2.07-3,0-.12-1.57-11.87-1.57-11.9A1.3,1.3,0,0,0,17.76,3"/><path class="cls-86" d="M17.76,3l0,15.38c.33-.23,2.16-1.68,2-3.08,0-.11-1.55-11.78-1.56-11.81A1.24,1.24,0,0,0,17.76,3"/><path class="cls-87" d="M17.76,3l0,15.38c.34-.24,2.15-1.7,2-3.16,0-.12-1.54-11.7-1.54-11.73A1.32,1.32,0,0,0,17.76,3"/><path class="cls-87" d="M17.76,3l0,15.37c.36-.25,2.13-1.7,2-3.23,0-.13-1.52-11.62-1.53-11.66a1.2,1.2,0,0,0-.5-.48"/><path class="cls-88" d="M17.76,3l0,15.37c.38-.26,2.12-1.72,2-3.31,0-.14-1.51-11.54-1.51-11.58a1.2,1.2,0,0,0-.5-.48"/><path class="cls-89" d="M17.76,3l0,15.36c.39-.27,2.1-1.72,2-3.38,0-.15-1.49-11.46-1.49-11.5a1.36,1.36,0,0,0-.5-.48"/><path class="cls-90" d="M17.76,3l0,15.36c.4-.29,2.07-1.74,1.94-3.47,0-.14-1.47-11.37-1.48-11.41A1.16,1.16,0,0,0,17.76,3"/><path class="cls-91" d="M17.76,3l0,15.36c.42-.3,2.06-1.75,1.92-3.55,0-.15-1.46-11.29-1.46-11.33A1.24,1.24,0,0,0,17.76,3"/><path class="cls-92" d="M17.76,3l0,15.35a4.61,4.61,0,0,0,1.9-3.62c0-.16-1.44-11.21-1.45-11.25A1.12,1.12,0,0,0,17.76,3"/><path class="cls-93" d="M17.76,3l0,15.35a4.62,4.62,0,0,0,1.88-3.7c0-.17-1.43-11.13-1.43-11.17A1.13,1.13,0,0,0,17.76,3"/><path class="cls-94" d="M17.76,3l0,15.34a4.62,4.62,0,0,0,1.86-3.77c0-.17-1.41-11-1.42-11.1A1.13,1.13,0,0,0,17.76,3"/><path class="cls-95" d="M17.76,3l0,15.34a4.64,4.64,0,0,0,1.83-3.86c0-.17-1.38-11-1.39-11A1.15,1.15,0,0,0,17.76,3"/><path class="cls-96" d="M17.76,3l0,15.33a4.64,4.64,0,0,0,1.81-3.93c0-.18-1.37-10.88-1.37-10.93A1.22,1.22,0,0,0,17.76,3"/><path class="cls-97" d="M17.76,3l0,15.33a4.67,4.67,0,0,0,1.79-4c0-.19-1.35-10.8-1.36-10.85A1.11,1.11,0,0,0,17.76,3"/><path class="cls-98" d="M17.76,3l0,15.32a4.71,4.71,0,0,0,1.77-4.08c0-.19-1.34-10.72-1.34-10.77A1.18,1.18,0,0,0,17.76,3"/><path class="cls-99" d="M17.76,3l0,15.32a4.77,4.77,0,0,0,1.75-4.16c0-.2-1.32-10.64-1.33-10.69A1,1,0,0,0,17.76,3"/><path class="cls-100" d="M17.76,3l0,15.31A4.79,4.79,0,0,0,19.52,14c0-.2-1.31-10.55-1.31-10.6A1.09,1.09,0,0,0,17.76,3"/><path class="cls-101" d="M17.76,3l0,15.31a4.86,4.86,0,0,0,1.71-4.32c0-.21-1.29-10.47-1.3-10.53A1,1,0,0,0,17.76,3"/><path class="cls-102" d="M17.76,3l0,15.31a4.94,4.94,0,0,0,1.68-4.4c0-.22-1.27-10.39-1.28-10.45A1.16,1.16,0,0,0,17.76,3"/><path class="cls-103" d="M17.76,3l0,15.3a5,5,0,0,0,1.66-4.47c0-.22-1.26-10.31-1.27-10.37A1,1,0,0,0,17.76,3"/><path class="cls-104" d="M17.76,3l0,15.3a5,5,0,0,0,1.64-4.55c0-.23-1.24-10.23-1.25-10.29A1.07,1.07,0,0,0,17.76,3"/><path class="cls-105" d="M17.76,3l0,15.29c.64-.45,1.83-1.9,1.62-4.63,0-.23-1.23-10.14-1.23-10.2A1.07,1.07,0,0,0,17.76,3"/><path class="cls-106" d="M17.76,3l0,15.29c.65-.46,1.81-1.92,1.59-4.71,0-.24-1.2-10.06-1.21-10.12A1,1,0,0,0,17.76,3"/><path class="cls-107" d="M17.76,3l0,15.28c.67-.47,1.8-1.92,1.57-4.78,0-.24-1.18-10-1.19-10A1.09,1.09,0,0,0,17.76,3"/><path class="cls-108" d="M17.76,3l0,15.28c.69-.48,1.78-1.94,1.55-4.86,0-.25-1.17-9.9-1.18-10A1,1,0,0,0,17.76,3"/><path class="cls-109" d="M17.76,3l0,15.27c.7-.49,1.77-1.95,1.53-4.93,0-.26-1.15-9.82-1.16-9.89A1.06,1.06,0,0,0,17.76,3"/><path class="cls-110" d="M17.76,3l0,15.27c.72-.5,1.75-2,1.51-5,0-.26-1.14-9.73-1.15-9.8a1,1,0,0,0-.4-.45"/><path class="cls-110" d="M17.76,3l0,15.27c.74-.52,1.74-2,1.49-5.1,0-.26-1.12-9.65-1.13-9.72a1,1,0,0,0-.4-.45"/><path class="cls-111" d="M17.76,3l0,15.26c.75-.52,1.72-2,1.47-5.17,0-.27-1.11-9.57-1.12-9.64A.89.89,0,0,0,17.76,3"/><path class="cls-112" d="M17.76,3l0,15.26c.76-.54,1.69-2,1.44-5.25,0-.28-1.09-9.5-1.1-9.56A1,1,0,0,0,17.76,3"/><path class="cls-113" d="M17.76,3l0,15.25c.78-.55,1.68-2,1.42-5.32,0-.29-1.07-9.42-1.08-9.49A1,1,0,0,0,17.76,3"/><path class="cls-113" d="M17.76,3l0,15.25c.79-.56,1.66-2,1.4-5.41,0-.29-1.06-9.33-1.07-9.4A1,1,0,0,0,17.76,3"/><path class="cls-114" d="M17.76,3l0,15.24c.81-.57,1.65-2,1.38-5.48,0-.29-1-9.25-1.05-9.32A1,1,0,0,0,17.76,3"/><path class="cls-115" d="M17.76,3l0,15.24c.83-.58,1.63-2,1.35-5.56,0-.3-1-9.17-1-9.24A.89.89,0,0,0,17.76,3"/><path class="cls-116" d="M17.76,3l0,15.23c.84-.59,1.62-2.05,1.33-5.63,0-.31-1-9.09-1-9.16A1,1,0,0,0,17.76,3"/><path class="cls-117" d="M17.76,3l0,15.23c.86-.6,1.6-2.06,1.31-5.72,0-.31-1-9-1-9.07A.92.92,0,0,0,17.76,3"/><path class="cls-118" d="M17.76,3l0,15.23c.88-.62,1.58-2.08,1.29-5.8,0-.31-1-8.92-1-9A1,1,0,0,0,17.76,3"/><path class="cls-119" d="M17.76,3l0,15.22c.89-.62,1.57-2.08,1.27-5.87,0-.32-.95-8.84-1-8.92A1,1,0,0,0,17.76,3"/><path class="cls-120" d="M17.76,3l0,15.22c.91-.64,1.55-2.1,1.25-6,0-.33-.94-8.76-.95-8.84A1,1,0,0,0,17.76,3"/><path class="cls-121" d="M17.76,3l0,15.21c.92-.64,1.54-2.1,1.23-6,0-.34-.92-8.68-.93-8.76A1,1,0,0,0,17.76,3"/><path class="cls-122" d="M17.76,3l.06,15.21c.93-.66,1.51-2.12,1.2-6.1,0-.34-.91-8.6-.92-8.68A.94.94,0,0,0,17.76,3"/><path class="cls-123" d="M17.76,3l.06,15.2C18.77,17.48,19.32,16,19,12c0-.34-.89-8.51-.9-8.59A.89.89,0,0,0,17.76,3"/><path class="cls-124" d="M17.76,3l.06,15.2c1-.68,1.48-2.14,1.16-6.26,0-.35-.87-8.43-.89-8.51A.93.93,0,0,0,17.76,3"/><path class="cls-125" d="M17.76,3l.06,15.19c1-.69,1.46-2.15,1.14-6.33,0-.36-.86-8.35-.87-8.44A.91.91,0,0,0,17.76,3"/><path class="cls-126" d="M17.76,3l.06,15.19c1-.7,1.45-2.16,1.11-6.41,0-.36-.83-8.27-.85-8.36A.88.88,0,0,0,17.76,3"/><path class="cls-127" d="M17.76,3l.06,15.18c1-.71,1.43-2.17,1.09-6.49,0-.36-.82-8.18-.83-8.27A.9.9,0,0,0,17.76,3"/><path class="cls-128" d="M17.76,3l.06,15.18c1-.72,1.42-2.18,1.07-6.57,0-.37-.8-8.1-.81-8.19A1,1,0,0,0,17.76,3"/><path class="cls-129" d="M17.76,3l.06,15.18c1.05-.74,1.4-2.2,1.05-6.65,0-.38-.79-8-.8-8.11A.89.89,0,0,0,17.76,3"/><path class="cls-130" d="M17.76,3l.06,15.17c1.06-.74,1.39-2.2,1-6.72,0-.39-.77-7.94-.78-8A1,1,0,0,0,17.76,3"/><path class="cls-131" d="M17.76,3l.06,15.17c1.08-.76,1.37-2.22,1-6.8,0-.39-.75-7.86-.77-8a1,1,0,0,0-.3-.41"/><path class="cls-132" d="M17.76,3l.06,15.16c1.1-.76,1.35-2.23,1-6.88,0-.39-.74-7.77-.75-7.87a.93.93,0,0,0-.3-.41"/><path class="cls-133" d="M17.76,3l.07,15.16c1.1-.78,1.33-2.24,1-7,0-.4-.72-7.69-.74-7.79A.91.91,0,0,0,17.76,3"/><path class="cls-134" d="M17.76,3l.07,15.15c1.12-.79,1.31-2.25.94-7,0-.41-.71-7.61-.72-7.71A.91.91,0,0,0,17.76,3"/><path class="cls-135" d="M17.76,3l.07,15.15c1.14-.8,1.3-2.26.92-7.11,0-.41-.69-7.53-.71-7.63A.91.91,0,0,0,17.76,3"/><path class="cls-136" d="M17.76,3l.07,15.14c1.15-.81,1.28-2.27.9-7.18,0-.42-.68-7.45-.69-7.55A.86.86,0,0,0,17.76,3"/><path class="cls-137" d="M17.76,3l.07,15.14c1.17-.82,1.27-2.28.87-7.27,0-.42-.65-7.36-.66-7.46A.94.94,0,0,0,17.76,3"/><path class="cls-138" d="M17.76,3l.07,15.14c1.19-.84,1.25-2.3.85-7.35,0-.43-.63-7.28-.65-7.39a1,1,0,0,0-.27-.4"/><path class="cls-139" d="M17.76,3l.07,15.13c1.2-.84,1.24-2.3.83-7.42,0-.43-.62-7.2-.63-7.31a1,1,0,0,0-.27-.4"/><path class="cls-140" d="M17.76,3l.07,15.13c1.22-.86,1.22-2.32.81-7.5,0-.44-.6-7.12-.62-7.23a.9.9,0,0,0-.26-.4"/><path class="cls-141" d="M17.76,3l.07,15.12c1.23-.86,1.2-2.33.79-7.57,0-.45-.59-7-.6-7.15a1,1,0,0,0-.26-.4"/><path class="cls-142" d="M17.76,3l.07,15.12c1.25-.88,1.19-2.34.77-7.66,0-.45-.57-6.95-.59-7.06a.92.92,0,0,0-.25-.4"/><path class="cls-143" d="M17.76,3l.07,15.11c1.27-.88,1.17-2.35.75-7.73,0-.46-.56-6.87-.57-7a1,1,0,0,0-.25-.4"/><path class="cls-144" d="M17.76,3l.08,15.11c1.27-.9,1.15-2.36.72-7.81,0-.46-.54-6.79-.55-6.9a1.06,1.06,0,0,0-.25-.4"/><path class="cls-145" d="M17.76,3l.08,15.1c1.29-.91,1.13-2.37.7-7.88,0-.47-.52-6.71-.54-6.83A1.09,1.09,0,0,0,17.76,3"/><path class="cls-146" d="M17.76,3l.08,15.1c1.31-.92,1.12-2.38.68-8,0-.48-.51-6.63-.52-6.75A1.14,1.14,0,0,0,17.76,3"/><path class="cls-147" d="M17.76,3,17.84,18c1.32-.93,1.1-2.39.66-8,0-.48-.49-6.54-.51-6.66A1.14,1.14,0,0,0,17.76,3"/><path class="cls-148" d="M17.76,3,17.84,18c1.34-.94,1.08-2.41.63-8.12,0-.48-.47-6.46-.48-6.58A1.2,1.2,0,0,0,17.76,3"/><path class="cls-149" d="M17.76,3,17.84,18c1.36-1,1.07-2.42.61-8.2,0-.49-.45-6.38-.47-6.5A1,1,0,0,0,17.76,3"/><path class="cls-150" d="M17.76,3,17.84,18c1.37-1,1.05-2.43.59-8.27,0-.5-.43-6.3-.45-6.42A1.3,1.3,0,0,0,17.76,3"/><path class="cls-151" d="M17.76,3,17.84,18c1.39-1,1-2.44.57-8.35,0-.51-.42-6.22-.44-6.35A1.16,1.16,0,0,0,17.76,3"/><path class="cls-152" d="M17.76,3,17.84,18c1.41-1,1-2.45.55-8.43,0-.5-.4-6.13-.42-6.26A1.38,1.38,0,0,0,17.76,3"/><path class="cls-153" d="M18,3.33A1.33,1.33,0,0,0,17.76,3L17.84,18c1.42-1,1-2.46.53-8.51,0-.51-.39-6-.4-6.18"/><path class="cls-154" d="M17.76,18.26v2.89L24,23.66l6.25,2.51L31,25.9l-6.62-3.82-3.31-1.91Z"/><path class="cls-155" d="M17.76,18.26v.11s0,2.78,0,2.79L24,23.66l6.09,2.45.15.06L31,25.9l-2.08-1.2-4.54-2.62-3.31-1.91-3.31-1.91"/><path class="cls-156" d="M17.76,18.26v.11s0,2.77.09,2.8L24,23.67l6.07,2.44.15.06s.74-.26.74-.27l-2.08-1.2-4.54-2.62-3.31-1.91-3.31-1.91"/><path class="cls-157" d="M17.76,18.26v.11s.07,2.77.13,2.81,6.16,2.49,6.16,2.49l6.06,2.44.15.06L31,25.9l-2.08-1.2-4.54-2.62-3.31-1.91-3.31-1.91"/><path class="cls-158" d="M17.76,18.26v.11s.09,2.76.17,2.82,6.13,2.49,6.13,2.49l6.05,2.43.15.06L31,25.9l-2.08-1.2-4.54-2.62-3.31-1.91-3.31-1.91"/><path class="cls-159" d="M17.76,18.26v.12s.12,2.75.21,2.82,6.1,2.49,6.1,2.49l6,2.42.16.06L31,25.9l-2.08-1.2-4.54-2.62-3.31-1.91-3.31-1.91"/><path class="cls-160" d="M17.76,18.26v.12A27.37,27.37,0,0,0,18,21.2c.12.08,6.07,2.49,6.07,2.49l6,2.42.16.06L31,25.9l-2.08-1.2-4.54-2.62-3.31-1.91-3.31-1.91"/><path class="cls-161" d="M17.76,18.26v.12a20,20,0,0,0,.34,2.84c.16.11,6,2.48,6,2.48l6,2.41.15.06s.71-.25.73-.27l-2.08-1.2-4.54-2.62-3.31-1.91-3.31-1.91"/><path class="cls-162" d="M17.76,18.26v.12a17.88,17.88,0,0,0,.39,2.85c.17.12,6,2.48,6,2.48l6,2.4.15.06s.71-.25.73-.27l-2.08-1.2-4.54-2.62-3.31-1.91-3.31-1.91"/><path class="cls-163" d="M17.76,18.26v.12a17.06,17.06,0,0,0,.43,2.86c.2.13,5.95,2.47,5.95,2.47l6,2.4.15.06L31,25.9l-2.08-1.2-4.54-2.62-3.31-1.91-3.31-1.91"/><path class="cls-164" d="M17.76,18.26v.12a15.6,15.6,0,0,0,.47,2.87c.22.14,5.92,2.47,5.92,2.47l6,2.4.15.05L31,25.9l-2.08-1.2-4.54-2.62-3.31-1.91-3.31-1.91"/><path class="cls-165" d="M17.76,18.26v.12a15,15,0,0,0,.51,2.88c.24.16,5.9,2.46,5.9,2.46l5.95,2.4.16.05L31,25.9l-2.08-1.2-4.54-2.62-3.31-1.91-3.31-1.91"/><path class="cls-166" d="M17.76,18.26v.12a13.27,13.27,0,0,0,.56,2.89c.25.17,5.86,2.46,5.86,2.46l5.95,2.39.15.05s.69-.24.72-.27l-2.08-1.2-4.54-2.62-3.31-1.91-3.31-1.91"/><path class="cls-166" d="M17.76,18.26v.13c0,.13.32,2.7.6,2.89s5.83,2.45,5.83,2.45l5.94,2.39.15.05s.68-.24.72-.27l-2.08-1.2-4.54-2.62-3.31-1.91-3.31-1.91"/><path class="cls-167" d="M17.76,18.26v.13c0,.14.35,2.7.64,2.89s5.81,2.46,5.81,2.46l5.92,2.38.15.05s.68-.24.72-.27l-2.08-1.2-4.54-2.62-3.31-1.91-3.31-1.91"/><path class="cls-167" d="M17.76,18.26v.13c0,.15.37,2.69.68,2.9s5.78,2.45,5.78,2.45l5.91,2.38.15.05s.68-.24.72-.27l-2.08-1.2-4.54-2.62-3.31-1.91-3.31-1.91"/><path class="cls-168" d="M17.76,18.26v.13c0,.16.39,2.69.73,2.91s5.74,2.45,5.74,2.45l5.9,2.37.15.05s.68-.24.72-.27l-2.08-1.2-4.54-2.62-3.31-1.91-3.31-1.91"/><path class="cls-169" d="M17.76,18.26v.13c0,.18.41,2.69.77,2.92s5.71,2.44,5.71,2.44l5.9,2.37.15.05s.66-.24.71-.27l-2.08-1.2-4.54-2.62-3.31-1.91-3.31-1.91"/><path class="cls-169" d="M17.76,18.26v.13c0,.19.44,2.68.81,2.93s5.69,2.44,5.69,2.44l5.88,2.36.15.05s.66-.23.71-.27l-2.08-1.2-4.54-2.62-3.31-1.91-3.31-1.91"/><path class="cls-170" d="M17.76,18.26v.13c0,.2.46,2.68.86,2.94s5.65,2.43,5.65,2.43l5.87,2.36.15.05s.66-.23.71-.27l-2.08-1.2-4.54-2.62-3.31-1.91-3.31-1.91"/><path class="cls-171" d="M17.76,18.26v.13c0,.21.48,2.67.9,2.95s5.62,2.43,5.62,2.43l5.86,2.35a.54.54,0,0,0,.15,0A6.21,6.21,0,0,0,31,25.9l-2.08-1.2-4.54-2.62-3.31-1.91-3.31-1.91"/><path class="cls-172" d="M17.76,18.26v.13c.06.22.51,2.67.94,3s5.6,2.42,5.6,2.42l5.84,2.35a.54.54,0,0,0,.15,0A6.21,6.21,0,0,0,31,25.9l-2.08-1.2-4.54-2.62-3.31-1.91-3.31-1.91"/><path class="cls-173" d="M17.76,18.26v.14c.06.22.53,2.65,1,3s5.57,2.42,5.57,2.42l5.83,2.34a.54.54,0,0,0,.15,0A6.21,6.21,0,0,0,31,25.9l-2.08-1.2-4.54-2.62-3.31-1.91-3.31-1.91"/><path class="cls-174" d="M17.76,18.26v.14c.06.23.55,2.65,1,3s5.53,2.42,5.53,2.42l5.82,2.33a.54.54,0,0,0,.15,0A6.21,6.21,0,0,0,31,25.9l-2.08-1.2-4.54-2.62-3.31-1.91-3.31-1.91"/><path class="cls-174" d="M17.76,18.26v.14c.06.24.57,2.65,1.07,3s5.51,2.42,5.51,2.42l5.81,2.33a.46.46,0,0,0,.15,0,5.63,5.63,0,0,0,.7-.26l-2.08-1.2-4.54-2.62-3.31-1.91-3.31-1.91"/><path class="cls-175" d="M17.76,18.26v.14c.07.25.6,2.64,1.11,3s5.48,2.42,5.48,2.42l5.8,2.32a.46.46,0,0,0,.15,0,5.1,5.1,0,0,0,.7-.26l-2.08-1.2-4.54-2.62-3.31-1.91-3.31-1.91"/><path class="cls-176" d="M17.76,18.26v.14c.07.26.62,2.64,1.16,3s5.44,2.41,5.44,2.41l5.79,2.33a.49.49,0,0,0,.15,0,6.86,6.86,0,0,0,.7-.26l-2.08-1.2-4.54-2.62-3.31-1.91-3.31-1.91"/><path class="cls-177" d="M17.76,18.26v.14c.07.27.64,2.63,1.2,3s5.41,2.41,5.41,2.41l5.78,2.32a.49.49,0,0,0,.15,0,6.86,6.86,0,0,0,.7-.26l-2.08-1.2-4.54-2.62-3.31-1.91-3.31-1.91"/><path class="cls-178" d="M17.76,18.26v.14c.07.28.67,2.63,1.24,3s5.39,2.4,5.39,2.4l5.76,2.32a.49.49,0,0,0,.15,0,6.86,6.86,0,0,0,.7-.26l-2.08-1.2-4.54-2.62-3.31-1.91-3.31-1.91"/><path class="cls-178" d="M17.76,18.26v.14c.08.29.69,2.63,1.28,3s5.36,2.4,5.36,2.4l5.76,2.31a.49.49,0,0,0,.14,0,6.86,6.86,0,0,0,.7-.26l-2.08-1.2-4.54-2.62-3.31-1.91-3.31-1.91"/><path class="cls-179" d="M17.76,18.26v.14c.08.31.71,2.62,1.33,3s5.32,2.39,5.32,2.39l5.75,2.31a.49.49,0,0,0,.15,0A5.53,5.53,0,0,0,31,25.9l-2.08-1.2-4.54-2.62-3.31-1.91-3.31-1.91"/><path class="cls-179" d="M17.76,18.26v.14c.08.32.74,2.62,1.37,3s5.3,2.39,5.3,2.39l5.73,2.3a.49.49,0,0,0,.15,0A5,5,0,0,0,31,25.9l-2.08-1.2-4.54-2.62-3.31-1.91-3.31-1.91"/><path class="cls-179" d="M17.76,18.26v.15c.08.32.76,2.6,1.41,3s5.27,2.38,5.27,2.38l5.72,2.3a.49.49,0,0,0,.15,0A5.53,5.53,0,0,0,31,25.9l-2.08-1.2-4.54-2.62-3.31-1.91-3.31-1.91"/><path class="cls-180" d="M17.76,18.26v.15c.09.33.78,2.6,1.45,3.05s5.24,2.38,5.24,2.38l5.71,2.29a.49.49,0,0,0,.15,0A5.53,5.53,0,0,0,31,25.9l-2.08-1.2-4.54-2.62-3.31-1.91-3.31-1.91"/><path class="cls-180" d="M17.76,18.26v.15c.09.34.8,2.59,1.5,3.05s5.21,2.38,5.21,2.38l5.69,2.29a.49.49,0,0,0,.15,0A5,5,0,0,0,31,25.9l-2.08-1.2-4.54-2.62-3.31-1.91-3.31-1.91"/><path class="cls-181" d="M17.76,18.26v.15c.09.35.83,2.59,1.54,3.06s5.18,2.38,5.18,2.38l5.69,2.28a.42.42,0,0,0,.14,0A5,5,0,0,0,31,25.9l-2.08-1.2-4.54-2.62-3.31-1.91-3.31-1.91"/><path class="cls-182" d="M17.76,18.26v.15c.09.36.85,2.59,1.58,3.07s5.15,2.37,5.15,2.37l5.68,2.28a.42.42,0,0,0,.14,0A4.3,4.3,0,0,0,31,25.9l-2.08-1.2-4.54-2.62-3.31-1.91-3.31-1.91"/><path class="cls-182" d="M17.76,18.26v.15c.1.37.87,2.58,1.62,3.08s5.12,2.37,5.12,2.37l5.67,2.27a.43.43,0,0,0,.15,0A4.61,4.61,0,0,0,31,25.9l-2.08-1.2-4.54-2.62-3.31-1.91-3.31-1.91"/><path class="cls-183" d="M17.76,18.26v.15c.1.38.9,2.58,1.67,3.09s5.09,2.36,5.09,2.36l5.65,2.27a.43.43,0,0,0,.15,0A4.22,4.22,0,0,0,31,25.9l-2.08-1.2-4.54-2.62-3.31-1.91-3.31-1.91"/><path class="cls-183" d="M17.76,18.26v.15c.1.39.92,2.57,1.71,3.1s5.06,2.36,5.06,2.36l5.64,2.26a.43.43,0,0,0,.15,0A4.22,4.22,0,0,0,31,25.9l-2.08-1.2-4.54-2.62-3.31-1.91-3.31-1.91"/><path class="cls-184" d="M17.76,18.26v.15c.1.4.94,2.57,1.75,3.11s5,2.36,5,2.36l5.63,2.25a.43.43,0,0,0,.15,0A4.61,4.61,0,0,0,31,25.9l-2.08-1.2-4.54-2.62-3.31-1.91-3.31-1.91"/><path class="cls-184" d="M17.76,18.26v.16c.11.4,1,2.56,1.8,3.11s5,2.35,5,2.35l5.62,2.26a.41.41,0,0,0,.14,0A4.22,4.22,0,0,0,31,25.9l-2.08-1.2-4.54-2.62-3.31-1.91-3.31-1.91"/><path class="cls-185" d="M17.76,18.26v.16a7.81,7.81,0,0,0,1.84,3.12c.85.56,5,2.35,5,2.35l5.61,2.25a.41.41,0,0,0,.14,0A3.45,3.45,0,0,0,31,25.9l-2.08-1.2-4.54-2.62-3.31-1.91-3.31-1.91"/><path class="cls-186" d="M17.76,18.26v.16a7.76,7.76,0,0,0,1.88,3.13c.87.57,4.94,2.34,4.94,2.34l5.6,2.25a.44.44,0,0,0,.15,0A3.64,3.64,0,0,0,31,25.9l-2.08-1.2-4.54-2.62-3.31-1.91-3.31-1.91"/><path class="cls-186" d="M17.76,18.26v.16a7.68,7.68,0,0,0,1.92,3.13c.89.6,4.92,2.35,4.92,2.35l5.58,2.24a.44.44,0,0,0,.15,0A3.64,3.64,0,0,0,31,25.9l-2.08-1.2-4.54-2.62-3.31-1.91-3.31-1.91"/><path class="cls-187" d="M17.76,18.26v.16a7.79,7.79,0,0,0,2,3.14c.91.61,4.88,2.34,4.88,2.34l5.57,2.24a.49.49,0,0,0,.15,0A3.64,3.64,0,0,0,31,25.9l-2.08-1.2-4.54-2.62-3.31-1.91-3.31-1.91"/><path class="cls-188" d="M17.76,18.26v.16a7.81,7.81,0,0,0,2,3.15c.93.62,4.85,2.34,4.85,2.34l5.56,2.23a.49.49,0,0,0,.15,0A4.53,4.53,0,0,0,31,25.9l-2.08-1.2-4.55-2.62-3.3-1.91-3.31-1.91"/><path class="cls-188" d="M17.76,18.26v.16a7.77,7.77,0,0,0,2,3.16c1,.63,4.82,2.33,4.82,2.33l5.56,2.23a.41.41,0,0,0,.14,0A4.14,4.14,0,0,0,31,25.9l-2.08-1.2-4.55-2.62-3.3-1.91-3.31-1.91"/><path class="cls-189" d="M17.76,18.26v.16a7.74,7.74,0,0,0,2.09,3.17c1,.64,4.8,2.33,4.8,2.33l5.54,2.22a.41.41,0,0,0,.14,0A3.64,3.64,0,0,0,31,25.9l-2.08-1.2-4.55-2.62-3.3-1.91-3.31-1.91"/><path class="cls-189" d="M17.76,18.26v.16A7.92,7.92,0,0,0,19.9,21.6c1,.66,4.76,2.32,4.76,2.32l5.53,2.22a.41.41,0,0,0,.14,0A3.64,3.64,0,0,0,31,25.9l-2.08-1.2-4.55-2.62-3.3-1.91-3.31-1.91"/><path class="cls-98" d="M17.76,18.26v.16a7.89,7.89,0,0,0,2.18,3.19c1,.67,4.73,2.32,4.73,2.32l5.52,2.21a.44.44,0,0,0,.15,0A3.87,3.87,0,0,0,31,25.9l-2.08-1.2-4.55-2.62-3.3-1.91-3.31-1.91"/><path class="cls-190" d="M17.76,18.26v.17A8,8,0,0,0,20,21.62c1,.68,4.71,2.31,4.71,2.31l5.5,2.21a.44.44,0,0,0,.15,0A3.87,3.87,0,0,0,31,25.9l-2.08-1.2-4.55-2.62-3.3-1.91-3.31-1.91"/><path class="cls-190" d="M17.76,18.26v.17A8,8,0,0,0,20,21.63c1,.69,4.67,2.31,4.67,2.31l5.49,2.2a.44.44,0,0,0,.15,0A3.87,3.87,0,0,0,31,25.9l-2.08-1.2-4.55-2.62-3.3-1.91-3.31-1.91"/><path class="cls-191" d="M17.76,18.26v.17a8,8,0,0,0,2.31,3.2c1.07.71,4.64,2.31,4.64,2.31l5.49,2.2a.37.37,0,0,0,.14,0A3.87,3.87,0,0,0,31,25.9l-2.08-1.2-4.55-2.62-3.3-1.91-3.31-1.91"/><path class="cls-191" d="M17.76,18.26v.17a8,8,0,0,0,2.35,3.21c1.09.73,4.62,2.31,4.62,2.31l5.47,2.19a.37.37,0,0,0,.14,0A3,3,0,0,0,31,25.9l-2.08-1.2-4.55-2.62-3.3-1.91-3.31-1.91"/><path class="cls-192" d="M17.76,18.26v.17a8.06,8.06,0,0,0,2.39,3.22c1.11.74,4.59,2.3,4.59,2.3l5.46,2.2a.45.45,0,0,0,.14,0A3.18,3.18,0,0,0,31,25.9l-2.08-1.2-4.55-2.62-3.3-1.91-3.31-1.91"/><path class="cls-193" d="M17.76,18.26v.17a8.06,8.06,0,0,0,2.44,3.23c1.13.75,4.55,2.3,4.55,2.3l5.45,2.19a.5.5,0,0,0,.15,0A3.36,3.36,0,0,0,31,25.9l-2.08-1.2-4.55-2.62-3.3-1.91-3.31-1.91"/><path class="cls-193" d="M17.76,18.26v.17a8.15,8.15,0,0,0,2.48,3.24c1.15.76,4.52,2.29,4.52,2.29l5.44,2.19a.5.5,0,0,0,.15,0A3.13,3.13,0,0,0,31,25.9l-2.08-1.2-4.55-2.62-3.3-1.91-3.31-1.91"/><path class="cls-94" d="M17.76,18.26v.17a8.21,8.21,0,0,0,2.52,3.25A49.46,49.46,0,0,0,24.78,24l5.42,2.18a.5.5,0,0,0,.15,0A3.13,3.13,0,0,0,31,25.9l-2.08-1.2-4.55-2.62-3.3-1.91-3.31-1.91"/><path class="cls-194" d="M17.76,18.26v.17a8.3,8.3,0,0,0,2.56,3.26A50.06,50.06,0,0,0,24.79,24l5.42,2.17a.42.42,0,0,0,.14,0A3.36,3.36,0,0,0,31,25.9l-2.08-1.2-4.55-2.62-3.3-1.91-3.31-1.91"/><path class="cls-195" d="M17.76,18.26v.18a8.3,8.3,0,0,0,2.61,3.26C21.58,22.5,24.8,24,24.8,24l5.41,2.17a.42.42,0,0,0,.14,0A2.82,2.82,0,0,0,31,25.9l-2.08-1.2-4.55-2.62-3.3-1.91-3.31-1.91"/><path class="cls-196" d="M17.76,18.26v.18a8.47,8.47,0,0,0,2.65,3.27c1.23.81,4.41,2.28,4.41,2.28l5.39,2.16a.42.42,0,0,0,.14,0,3,3,0,0,0,.65-.25s-1.23-.72-2.08-1.21l-4.55-2.62-3.3-1.91-3.31-1.91"/><path class="cls-197" d="M17.76,18.26v.18a8.56,8.56,0,0,0,2.69,3.28c1.25.82,4.38,2.27,4.38,2.27l5.38,2.16a.42.42,0,0,0,.14,0,3,3,0,0,0,.65-.25s-1.22-.71-2.08-1.21l-4.55-2.62-3.3-1.91-3.31-1.91"/><path class="cls-91" d="M17.76,18.26v.18a8.5,8.5,0,0,0,2.74,3.28A45.58,45.58,0,0,0,24.84,24l5.37,2.15a.35.35,0,0,0,.15,0,2.75,2.75,0,0,0,.64-.24s-1.21-.7-2.08-1.21l-4.55-2.62-3.3-1.91-3.31-1.91"/><path class="cls-198" d="M17.76,18.26v.18a8.51,8.51,0,0,0,2.78,3.29A46.5,46.5,0,0,0,24.86,24l5.35,2.15a.35.35,0,0,0,.15,0,3.07,3.07,0,0,0,.64-.24s-1.19-.69-2.08-1.21l-4.55-2.62-3.3-1.91-3.31-1.91"/><path class="cls-199" d="M17.76,18.26v.18a8.61,8.61,0,0,0,2.82,3.3A47.34,47.34,0,0,0,24.87,24l5.35,2.14a.3.3,0,0,0,.14,0,3.07,3.07,0,0,0,.64-.24L28.92,24.7l-4.55-2.62-3.3-1.91-3.31-1.91"/><path class="cls-90" d="M17.76,18.26v.18a8.78,8.78,0,0,0,2.86,3.31A47.28,47.28,0,0,0,24.88,24l5.34,2.14a.3.3,0,0,0,.14,0,2.59,2.59,0,0,0,.64-.24L28.92,24.7l-4.55-2.62-3.3-1.91-3.31-1.91"/><path class="cls-200" d="M17.76,18.26v.18a8.67,8.67,0,0,0,2.91,3.32A46.84,46.84,0,0,0,24.9,24l5.32,2.13a.3.3,0,0,0,.14,0,2.59,2.59,0,0,0,.64-.24L28.92,24.7l-4.55-2.62-3.3-1.91-3.31-1.91"/><path class="cls-200" d="M17.76,18.26v.18a8.76,8.76,0,0,0,2.95,3.33A45.55,45.55,0,0,0,24.91,24l5.31,2.13a.3.3,0,0,0,.14,0,2.59,2.59,0,0,0,.64-.24L28.92,24.7l-4.55-2.62-3.3-1.91-3.31-1.91"/><path class="cls-201" d="M17.76,18.26v.18a9,9,0,0,0,3,3.34A46.6,46.6,0,0,0,24.92,24l5.3,2.12a.33.33,0,0,0,.15,0,2.7,2.7,0,0,0,.63-.24L28.92,24.7l-4.55-2.62-3.3-1.91-3.31-1.91"/><path class="cls-202" d="M17.76,18.26v.19a9,9,0,0,0,3,3.34A46.67,46.67,0,0,0,24.93,24l5.29,2.13a.43.43,0,0,0,.15,0,2.7,2.7,0,0,0,.63-.24L28.92,24.7l-4.55-2.62-3.3-1.91-3.31-1.91"/><path class="cls-87" d="M17.76,18.26v.19a9.08,9.08,0,0,0,3.08,3.35A46.41,46.41,0,0,0,25,24l5.28,2.12a.38.38,0,0,0,.14,0,2.7,2.7,0,0,0,.63-.24L28.92,24.7l-4.55-2.62-3.3-1.91-3.31-1.91"/><path class="cls-203" d="M17.76,18.26v.19a9.18,9.18,0,0,0,3.12,3.36C22.32,22.76,25,24,25,24l5.27,2.12a.38.38,0,0,0,.14,0,2.31,2.31,0,0,0,.63-.24L28.92,24.7l-4.55-2.62-3.3-1.91-3.31-1.91"/><path class="cls-204" d="M17.76,18.26v.19a9.28,9.28,0,0,0,3.16,3.36,44.92,44.92,0,0,0,4,2.24l5.26,2.11a.38.38,0,0,0,.14,0,2.31,2.31,0,0,0,.63-.24L28.92,24.7l-4.55-2.62-3.3-1.91-3.31-1.91"/><path class="cls-86" d="M17.76,18.26v.19A9.26,9.26,0,0,0,21,21.82a43.7,43.7,0,0,0,4,2.23l5.24,2.11a.38.38,0,0,0,.14,0,2.31,2.31,0,0,0,.63-.24L28.92,24.7l-4.55-2.62-3.3-1.91-3.31-1.91"/><path class="cls-205" d="M17.76,18.26v.19c.19.74,1.74,2.38,3.25,3.38a45.09,45.09,0,0,0,4,2.23l5.23,2.1a.38.38,0,0,0,.14,0,2.31,2.31,0,0,0,.63-.24L28.92,24.7l-4.55-2.62-3.3-1.91-3.31-1.91"/><path class="cls-205" d="M17.76,18.26v.19c.19.75,1.77,2.38,3.29,3.39s4,2.22,4,2.22l5.23,2.1a.38.38,0,0,0,.14,0,2.39,2.39,0,0,0,.62-.24L28.92,24.7l-4.55-2.62-3.3-1.91-3.31-1.91"/><path class="cls-206" d="M17.76,18.26v.19c.2.76,1.79,2.38,3.33,3.4S25,24.07,25,24.07l5.21,2.09a.38.38,0,0,0,.14,0,2.27,2.27,0,0,0,.62-.24L28.92,24.7l-4.55-2.62-3.3-1.91-3.31-1.91"/><path class="cls-207" d="M17.76,18.26v.19c.2.77,1.81,2.37,3.38,3.41A44.55,44.55,0,0,0,25,24.07l5.2,2.09a.38.38,0,0,0,.14,0,2.07,2.07,0,0,0,.62-.24L28.92,24.7l-4.55-2.62-3.3-1.91-3.31-1.91"/><path class="cls-207" d="M17.76,18.26v.2c.2.78,1.84,2.36,3.42,3.41s3.87,2.21,3.87,2.21l5.19,2.08a.38.38,0,0,0,.14,0,2.07,2.07,0,0,0,.62-.24L28.92,24.7l-4.55-2.62-3.3-1.91-3.31-1.91"/><path class="cls-208" d="M17.76,18.26v.2c.2.79,1.86,2.35,3.46,3.42s3.85,2.21,3.85,2.21l5.17,2.07a.38.38,0,0,0,.14,0,2,2,0,0,0,.62-.24L28.92,24.7l-4.55-2.62-3.3-1.91-3.31-1.91"/><path class="cls-208" d="M17.76,18.26v.2c.21.8,1.88,2.35,3.5,3.43s3.82,2.2,3.82,2.2l5.16,2.07a.38.38,0,0,0,.14,0,2,2,0,0,0,.62-.24L28.92,24.7l-4.55-2.62-3.3-1.91-3.31-1.91"/><path class="cls-208" d="M17.76,18.26v.2c.21.81,1.9,2.35,3.55,3.44s3.78,2.2,3.78,2.2l5.15,2.06a.38.38,0,0,0,.14,0,2.07,2.07,0,0,0,.62-.24L28.92,24.7l-4.55-2.62-3.3-1.91-3.31-1.91"/><path class="cls-81" d="M17.76,18.26v.2c.21.82,1.93,2.34,3.59,3.44s3.75,2.2,3.75,2.2l5.15,2.06a.38.38,0,0,0,.14,0,2.49,2.49,0,0,0,.61-.24L28.92,24.7l-4.55-2.62-3.3-1.91-3.31-1.91"/><path class="cls-81" d="M17.76,18.26v.2c.21.83,1.95,2.34,3.63,3.45s3.73,2.2,3.73,2.2l5.13,2.06.14,0a2,2,0,0,0,.61-.24L28.92,24.7l-4.55-2.62-3.3-1.91-3.31-1.91"/><path class="cls-209" d="M17.76,18.26v.2c.22.84,2,2.33,3.68,3.46s3.69,2.19,3.69,2.19l5.12,2.06.14,0a2,2,0,0,0,.61-.24L28.92,24.7l-4.55-2.62-3.3-1.91-3.31-1.91"/><path class="cls-80" d="M17.76,18.26v.2c.22.85,2,2.33,3.72,3.47s3.66,2.19,3.66,2.19l5.11,2.05.14,0a2.14,2.14,0,0,0,.61-.24L28.92,24.7l-4.55-2.62-3.3-1.91-3.31-1.91"/><path class="cls-80" d="M17.76,18.26v.2c.22.86,2,2.32,3.76,3.48s3.64,2.18,3.64,2.18l5.09,2.05.14,0a2,2,0,0,0,.61-.24L28.92,24.7l-4.55-2.62-3.3-1.91-3.31-1.91"/><path class="cls-78" d="M17.76,18.26v.21c.22.86,2,2.31,3.8,3.48s3.61,2.18,3.61,2.18l5.09,2,.13,0a2,2,0,0,0,.61-.24L28.92,24.7l-4.55-2.62-3.3-1.91-3.31-1.91"/><path class="cls-78" d="M17.76,18.26v.21c.23.87,2.06,2.31,3.85,3.49s3.57,2.17,3.57,2.17l5.08,2,.14,0a2.1,2.1,0,0,0,.6-.24L28.92,24.7l-4.55-2.62-3.3-1.91-3.31-1.91"/><path class="cls-210" d="M17.76,18.26v.21c.23.88,2.09,2.3,3.89,3.5s3.55,2.17,3.55,2.17l5.06,2a1.71,1.71,0,0,0,.74-.26L28.92,24.7l-4.55-2.62-6.61-3.82"/><path class="cls-53" d="M5.26,26.17a1.71,1.71,0,0,1-.75-.27l13.25-7.65v2.9Z"/><path class="cls-211" d="M4.51,25.9l13.25-7.65s0,2.88-.08,2.92l-12.42,5a1.71,1.71,0,0,1-.75-.27"/><path class="cls-212" d="M4.51,25.9l13.25-7.65a19.6,19.6,0,0,1-.16,2.94l-12.35,5a1.75,1.75,0,0,1-.74-.26"/><path class="cls-212" d="M4.51,25.9l13.24-7.64a13.2,13.2,0,0,1-.23,3L5.24,26.16a1.69,1.69,0,0,1-.73-.26"/><path class="cls-213" d="M4.51,25.9l13.24-7.64c0,.06,0,2.83-.31,3L5.24,26.16a1.69,1.69,0,0,1-.73-.26"/><path class="cls-214" d="M4.51,25.9l13.24-7.64c0,.07,0,2.81-.39,3L5.23,26.16a1.63,1.63,0,0,1-.72-.26"/><path class="cls-214" d="M4.51,25.9l13.24-7.64c0,.09,0,2.79-.47,3-.11.06-12.06,4.88-12.06,4.88a1.79,1.79,0,0,1-.71-.26"/><path class="cls-215" d="M4.51,25.9l13.23-7.64c0,.11,0,2.78-.54,3-.13.07-12,4.84-12,4.84a1.67,1.67,0,0,1-.71-.25"/><path class="cls-215" d="M4.51,25.9l13.23-7.64c0,.12,0,2.76-.62,3.07-.15.08-11.91,4.82-11.91,4.82a1.61,1.61,0,0,1-.7-.25"/><path class="cls-59" d="M4.51,25.9l13.23-7.63c0,.13,0,2.74-.7,3.08-.17.09-11.84,4.8-11.84,4.8a1.6,1.6,0,0,1-.69-.25"/><path class="cls-216" d="M4.51,25.9l13.23-7.63c0,.15,0,2.72-.78,3.1-.19.1-11.77,4.78-11.77,4.78a1.71,1.71,0,0,1-.68-.25"/><path class="cls-217" d="M4.51,25.9l13.22-7.63c0,.16,0,2.7-.85,3.12-.21.11-11.69,4.75-11.69,4.75a1.59,1.59,0,0,1-.68-.24"/><path class="cls-218" d="M4.51,25.9l13.22-7.63c0,.18-.05,2.69-.93,3.15-.23.12-11.62,4.72-11.62,4.72a1.58,1.58,0,0,1-.67-.24"/><path class="cls-219" d="M4.51,25.9l13.22-7.63c0,.2-.05,2.67-1,3.17-.25.13-11.55,4.7-11.55,4.7a1.52,1.52,0,0,1-.66-.24"/><path class="cls-220" d="M4.51,25.9l13.22-7.63c0,.21-.06,2.66-1.09,3.19-.27.14-11.47,4.68-11.47,4.68a1.69,1.69,0,0,1-.66-.24"/><path class="cls-220" d="M4.52,25.9l13.2-7.62c0,.22,0,2.63-1.16,3.2-.29.15-11.4,4.66-11.4,4.66a1.56,1.56,0,0,1-.64-.24"/><path class="cls-66" d="M4.52,25.9l13.2-7.62c0,.24-.06,2.61-1.24,3.23-.31.16-11.33,4.62-11.33,4.62a1.44,1.44,0,0,1-.63-.23"/><path class="cls-66" d="M4.52,25.9l13.2-7.62c0,.25-.07,2.6-1.32,3.25-.33.17-11.25,4.6-11.25,4.6a1.61,1.61,0,0,1-.63-.23"/><path class="cls-221" d="M4.52,25.9l13.2-7.62c0,.27-.07,2.58-1.4,3.27-.35.18-11.18,4.58-11.18,4.58a1.54,1.54,0,0,1-.62-.23"/><path class="cls-67" d="M4.52,25.9l13.19-7.62c0,.29-.07,2.57-1.47,3.29-.37.19-11.11,4.56-11.11,4.56a1.53,1.53,0,0,1-.61-.23"/><path class="cls-222" d="M4.52,25.9l13.19-7.62c0,.3-.08,2.55-1.55,3.31-.38.21-11,4.53-11,4.53a1.36,1.36,0,0,1-.6-.22"/><path class="cls-69" d="M4.52,25.9l13.19-7.61c0,.31-.08,2.52-1.63,3.33-.4.21-11,4.5-11,4.5a1.53,1.53,0,0,1-.6-.22"/><path class="cls-69" d="M4.52,25.9l13.19-7.61c0,.33-.09,2.51-1.71,3.35-.42.22-10.89,4.48-10.89,4.48a1.46,1.46,0,0,1-.59-.22"/><path class="cls-223" d="M4.52,25.9,17.7,18.29a3.87,3.87,0,0,1-1.78,3.37c-.44.23-10.82,4.46-10.82,4.46a1.45,1.45,0,0,1-.58-.22"/><path class="cls-224" d="M4.52,25.9,17.7,18.29a3.86,3.86,0,0,1-1.86,3.39c-.46.24-10.74,4.44-10.74,4.44a1.45,1.45,0,0,1-.58-.22"/><path class="cls-71" d="M4.52,25.9,17.7,18.29a3.9,3.9,0,0,1-1.94,3.42c-.48.25-10.67,4.4-10.67,4.4a1.45,1.45,0,0,1-.57-.21"/><path class="cls-225" d="M4.52,25.9,17.7,18.29a3.9,3.9,0,0,1-2,3.44c-.5.26-10.6,4.38-10.6,4.38a1.43,1.43,0,0,1-.56-.21"/><path class="cls-226" d="M4.52,25.9l13.17-7.6a3.86,3.86,0,0,1-2.09,3.45c-.52.27-10.53,4.36-10.53,4.36a1.37,1.37,0,0,1-.55-.21"/><path class="cls-72" d="M4.52,25.9l13.17-7.6a3.91,3.91,0,0,1-2.17,3.47c-.54.28-10.45,4.34-10.45,4.34a1.37,1.37,0,0,1-.55-.21"/><path class="cls-73" d="M4.52,25.91,17.69,18.3a3.91,3.91,0,0,1-2.25,3.49c-.56.3-10.38,4.31-10.38,4.31a1.51,1.51,0,0,1-.54-.19"/><path class="cls-74" d="M4.52,25.91,17.69,18.3a4,4,0,0,1-2.33,3.52c-.58.3-10.31,4.28-10.31,4.28a1.43,1.43,0,0,1-.53-.19"/><path class="cls-227" d="M4.52,25.91,17.68,18.3a4,4,0,0,1-2.4,3.54c-.6.31-10.23,4.26-10.23,4.26a1.43,1.43,0,0,1-.53-.19"/><path class="cls-75" d="M4.52,25.91,17.68,18.3a4,4,0,0,1-2.48,3.56C14.58,22.18,5,26.1,5,26.1a1.36,1.36,0,0,1-.52-.19"/><path class="cls-75" d="M4.52,25.91,17.68,18.3c0,.5-.13,2.32-2.56,3.58C14.48,22.21,5,26.1,5,26.1a1.58,1.58,0,0,1-.51-.19"/><path class="cls-228" d="M4.52,25.91l13.15-7.6c0,.51-.12,2.3-2.63,3.6-.65.34-10,4.18-10,4.18a1.43,1.43,0,0,1-.51-.18"/><path class="cls-228" d="M4.52,25.91l13.15-7.6c0,.53-.13,2.28-2.71,3.62C14.29,22.28,5,26.09,5,26.09a1.35,1.35,0,0,1-.5-.18"/><path class="cls-77" d="M4.52,25.91l13.15-7.6c0,.54-.14,2.26-2.79,3.64C14.19,22.31,5,26.09,5,26.09a1.33,1.33,0,0,1-.49-.18"/><path class="cls-78" d="M4.52,25.91l13.15-7.6c0,.56-.14,2.25-2.87,3.66C14.09,22.34,5,26.09,5,26.09a1.51,1.51,0,0,1-.49-.18"/><path class="cls-229" d="M4.52,25.91l13.14-7.6c0,.58-.14,2.23-2.94,3.69C14,22.38,5,26.08,5,26.08a1.34,1.34,0,0,1-.48-.17"/><path class="cls-80" d="M4.52,25.91l13.14-7.59c0,.58-.15,2.21-3,3.7C13.89,22.41,5,26.08,5,26.08a1.33,1.33,0,0,1-.47-.17"/><path class="cls-80" d="M4.52,25.91l13.14-7.59c0,.6-.15,2.19-3.1,3.72-.77.4-9.58,4-9.58,4a1.25,1.25,0,0,1-.46-.17"/><path class="cls-81" d="M4.52,25.91l13.14-7.59c0,.62-.16,2.18-3.18,3.74-.79.41-9.5,4-9.5,4a1.51,1.51,0,0,1-.46-.17"/><path class="cls-81" d="M4.52,25.91l13.13-7.59c0,.63-.16,2.16-3.25,3.76-.81.43-9.43,4-9.43,4a1.41,1.41,0,0,1-.45-.17"/><path class="cls-82" d="M4.52,25.91l13.13-7.59c0,.65-.16,2.14-3.33,3.79-.83.43-9.36,4-9.36,4a1.24,1.24,0,0,1-.44-.16"/><path class="cls-208" d="M4.52,25.91l13.13-7.59c0,.67-.17,2.13-3.41,3.81C13.39,22.57,5,26.07,5,26.07a1.24,1.24,0,0,1-.44-.16"/><path class="cls-84" d="M4.52,25.91l13.13-7.58c0,.67-.17,2.1-3.49,3.82C13.29,22.6,5,26.07,5,26.07a1.42,1.42,0,0,1-.43-.16"/><path class="cls-207" d="M4.52,25.91l13.12-7.58c0,.69-.17,2.09-3.56,3.84-.89.46-9.14,3.9-9.14,3.9a1.41,1.41,0,0,1-.42-.16"/><path class="cls-206" d="M4.52,25.91l13.12-7.58c0,.71-.18,2.07-3.64,3.86-.91.48-9.06,3.87-9.06,3.87a1.18,1.18,0,0,1-.42-.15"/><path class="cls-205" d="M4.52,25.91l13.12-7.58c0,.72-.18,2.05-3.72,3.89-.92.48-9,3.84-9,3.84a1.16,1.16,0,0,1-.41-.15"/><path class="cls-205" d="M4.52,25.91l13.12-7.58c0,.74-.19,2-3.8,3.91-.94.49-8.92,3.82-8.92,3.82a1.44,1.44,0,0,1-.4-.15"/><path class="cls-86" d="M4.52,25.91l13.11-7.58c0,.76-.19,2-3.87,3.93-1,.5-8.85,3.8-8.85,3.8a1.33,1.33,0,0,1-.39-.15"/><path class="cls-204" d="M4.52,25.91l13.11-7.58c0,.77-.19,2-3.95,4-1,.52-8.77,3.77-8.77,3.77a1.16,1.16,0,0,1-.39-.14"/><path class="cls-87" d="M4.52,25.91l13.11-7.57c0,.78-.2,2-4,4-1,.52-8.7,3.74-8.7,3.74a1.08,1.08,0,0,1-.38-.14"/><path class="cls-202" d="M4.53,25.91l13.1-7.57c0,.8-.21,2-4.1,4-1,.53-8.64,3.72-8.64,3.72a1.24,1.24,0,0,1-.36-.14"/><path class="cls-201" d="M4.53,25.91l13.09-7.57c0,.81-.2,1.95-4.17,4-1,.54-8.56,3.7-8.56,3.7a1.14,1.14,0,0,1-.36-.14"/><path class="cls-200" d="M4.53,25.91l13.09-7.57c0,.83-.21,1.93-4.25,4-1.07.56-8.49,3.68-8.49,3.68a1.13,1.13,0,0,1-.35-.14"/><path class="cls-230" d="M4.53,25.91l13.09-7.57c0,.85-.21,1.92-4.33,4.05C12.2,23,4.87,26,4.87,26a1.27,1.27,0,0,1-.34-.13"/><path class="cls-199" d="M4.53,25.91l13.09-7.56c0,.85-.22,1.89-4.41,4.07C12.1,23,4.87,26,4.87,26a1.16,1.16,0,0,1-.34-.13"/><path class="cls-198" d="M4.53,25.91l13.08-7.56c0,.87-.22,1.87-4.48,4.09C12,23,4.86,26,4.86,26a1.15,1.15,0,0,1-.33-.13"/><path class="cls-91" d="M4.53,25.91l13.08-7.56c0,.89-.22,1.86-4.56,4.11C11.9,23.05,4.85,26,4.85,26a1,1,0,0,1-.32-.13"/><path class="cls-196" d="M4.53,25.91l13.08-7.56c0,.9-.23,1.84-4.64,4.13C11.8,23.09,4.84,26,4.84,26a1.18,1.18,0,0,1-.31-.12"/><path class="cls-196" d="M4.53,25.91l13.08-7.56c0,.92-.24,1.83-4.72,4.16-1.19.61-8,3.52-8,3.52a1.18,1.18,0,0,1-.31-.12"/><path class="cls-195" d="M4.53,25.91,17.6,18.35c0,.94-.23,1.81-4.79,4.18-1.21.62-8,3.5-8,3.5a1.05,1.05,0,0,1-.3-.12"/><path class="cls-194" d="M4.53,25.91,17.6,18.36c0,.94-.24,1.78-4.87,4.19C11.51,23.18,4.82,26,4.82,26a1,1,0,0,1-.29-.12"/><path class="cls-231" d="M4.53,25.91,17.6,18.36c0,1-.25,1.77-5,4.21C11.41,23.22,4.82,26,4.82,26a1.32,1.32,0,0,1-.29-.12"/><path class="cls-193" d="M4.53,25.91,17.6,18.36c0,1-.25,1.75-5,4.23C11.31,23.25,4.81,26,4.81,26a1.09,1.09,0,0,1-.28-.11"/><path class="cls-192" d="M4.53,25.91l13.06-7.55c0,1-.25,1.74-5.1,4.26C11.21,23.28,4.8,26,4.8,26a1.09,1.09,0,0,1-.27-.11"/><path class="cls-191" d="M4.53,25.91l13.06-7.55c0,1-.25,1.72-5.18,4.28C11.11,23.31,4.8,26,4.8,26a1,1,0,0,1-.27-.11"/><path class="cls-232" d="M4.53,25.91l13.06-7.55c0,1-.26,1.7-5.26,4.3C11,23.35,4.79,26,4.79,26a1.48,1.48,0,0,1-.26-.11"/><path class="cls-190" d="M4.53,25.91l13.06-7.54c0,1-.27,1.68-5.34,4.31C10.91,23.38,4.78,26,4.78,26a1,1,0,0,1-.25-.1"/><path class="cls-233" d="M4.53,25.91l13-7.54c0,1.05-.26,1.66-5.41,4.34-1.36.7-7.4,3.3-7.4,3.3a1,1,0,0,1-.24-.1"/><path class="cls-189" d="M4.53,25.91l13-7.54c0,1.07-.27,1.65-5.49,4.36C10.71,23.44,4.77,26,4.77,26a1,1,0,0,1-.24-.1"/><path class="cls-189" d="M4.53,25.91l13-7.54c0,1.08-.28,1.63-5.57,4.38C10.61,23.47,4.76,26,4.76,26a1.39,1.39,0,0,1-.23-.1"/><path class="cls-234" d="M4.53,25.91l13-7.54c0,1.1-.28,1.61-5.65,4.4C10.51,23.51,4.75,26,4.75,26a1.44,1.44,0,0,1-.22-.1"/><path class="cls-188" d="M4.53,25.91l13-7.54c0,1.12-.28,1.6-5.72,4.43-1.44.74-7.1,3.2-7.1,3.2a.89.89,0,0,1-.22-.09"/><path class="cls-235" d="M4.53,25.91l13-7.53c0,1.12-.28,1.57-5.8,4.44-1.46.75-7,3.18-7,3.18a.88.88,0,0,1-.21-.09"/><path class="cls-186" d="M4.53,25.91l13-7.53c0,1.14-.29,1.56-5.88,4.46-1.48.76-7,3.16-7,3.16l-.2-.09"/><path class="cls-236" d="M4.53,25.91l13-7.53c0,1.16-.3,1.54-6,4.48C10.12,23.64,4.73,26,4.73,26a1.27,1.27,0,0,1-.2-.09"/><path class="cls-184" d="M4.53,25.91l13-7.53c0,1.17-.29,1.52-6,4.5C10,23.67,4.72,26,4.72,26a1,1,0,0,1-.19-.08"/><path class="cls-237" d="M4.53,25.91l13-7.53c0,1.19-.3,1.51-6.11,4.53C9.92,23.7,4.71,26,4.71,26a.76.76,0,0,1-.18-.08"/><path class="cls-238" d="M4.53,25.91l13-7.53c0,1.21-.31,1.49-6.19,4.55C9.82,23.73,4.7,26,4.7,26l-.17-.08"/><path class="cls-239" d="M4.53,25.91l13-7.52c0,1.21-.31,1.47-6.27,4.56-1.57.81-6.59,3-6.59,3l-.17-.08"/><path class="cls-240" d="M4.53,25.91l13-7.52c.05,1.23-.31,1.45-6.34,4.58-1.59.83-6.52,3-6.52,3a1.14,1.14,0,0,1-.16-.08"/><path class="cls-241" d="M4.53,25.91l13-7.52c0,1.25-.32,1.43-6.42,4.61-1.61.83-6.45,3-6.45,3a.85.85,0,0,1-.15-.07"/><path class="cls-242" d="M4.53,25.91l13-7.52c0,1.27-.32,1.42-6.5,4.63-1.63.84-6.37,3-6.37,3l-.15-.07"/><path class="cls-243" d="M4.53,25.91l13-7.52c0,1.28-.33,1.4-6.58,4.65C9.32,23.89,4.67,26,4.67,26l-.14-.07"/><path class="cls-244" d="M4.53,25.91l13-7.52c.05,1.3-.33,1.39-6.65,4.67C9.22,23.93,4.66,26,4.66,26l-.13-.07"/><path class="cls-244" d="M4.53,25.91l13-7.51c0,1.3-.33,1.36-6.73,4.68C9.12,24,4.66,26,4.66,26a.69.69,0,0,1-.13-.06"/><path class="cls-245" d="M4.53,25.91l13-7.51c0,1.32-.34,1.34-6.81,4.71C9,24,4.65,26,4.65,26l-.12-.06"/><path class="cls-245" d="M4.53,25.91l13-7.51c0,1.34-.34,1.33-6.89,4.73-1.73.89-6,2.84-6,2.84l-.11-.06"/><path class="cls-246" d="M4.53,25.91l13-7.51c0,1.36-.34,1.31-7,4.75C8.83,24.06,4.63,26,4.63,26l-.1-.06"/><path class="cls-246" d="M4.53,25.92l.1,0s4.1-1.88,5.86-2.8c6.69-3.47,7.09-3.4,7-4.77Z"/></g><path class="cls-247" d="M4.64,25.17a1.39,1.39,0,0,0-.13.73l13.25-7.65L15.25,16.8Z"/><path class="cls-248" d="M17.76,18.25,31,25.9a1.43,1.43,0,0,0-.12-.71L20.27,16.8Z"/><path class="cls-249" d="M17.42,3.18a1.65,1.65,0,0,0-.26.29L15.25,16.8l2.51,1.45h0V3a2.15,2.15,0,0,0-.34.23"/><path class="cls-250" d="M17.26,3.34l-.11.13L15.26,16.8l1.07.54A.76.76,0,0,1,16,17a1.33,1.33,0,0,1,0-.4c0-.3.13-1.07,1.34-13.33a.72.72,0,0,0-.11.12M20,16.94s-2,1.24-1.91,1.21a10.58,10.58,0,0,1,1.5-.54,1.41,1.41,0,0,1,1.13.41c.06,0,10.17,7.37,10.21,7.41a1.61,1.61,0,0,0-.1-.3L20.26,16.81ZM4.66,25.12a1.33,1.33,0,0,0-.11.31s10.74-7.71,11.11-8,.29-.18.56-.08L15.5,17l-.24-.14Z"/><g class="cls-4"><path class="cls-129" d="M15.68,16.8a.54.54,0,0,1-.08-.4c0-.39,1.66-13.06,1.66-13.06l-.06.07,0,.06L15.25,16.71a.21.21,0,0,1-.07.13L4.65,25.12l-.06.15L15.5,17l1.82,1,.16,0s-1.68-1-1.8-1.19"/><path class="cls-154" d="M17.76,20.91,5.17,26.16h.09l12.42-5h0a.19.19,0,0,1,.15,0l12.43,5h.09Z"/><path class="cls-251" d="M20.27,16.8l10.6,8.32a.77.77,0,0,1,.06.15L20,16.94Z"/><path class="cls-252" d="M20,16.94l-.75.48,0-.08c.54-.28.81-.43.77-.75S18.32,3.4,18.32,3.4l.05.07,1.9,13.33Z"/><path class="cls-53" d="M4.51,25.82l12.78-7.54.07,0s.05,0,0-.12l.17.14-13,7.61Zm26.5,0L18.18,18.26a.11.11,0,0,1-.05-.05.16.16,0,0,1,0-.11l-.21.15L31,25.87ZM17.72,3l0,0-.12,14.87a.31.31,0,0,1,0,.09s-.06,0-.15,0l.23.07L17.73,3Z"/></g><path class="cls-253" d="M17.65,18.42l.07,2.47s0,.26,0,.26,0-.26,0-.26l.08-2.47Z"/><g class="cls-4"><path class="cls-62" d="M19.25,17.34l-1.4.73h-.18S15.54,16.92,15.5,17s2.06,1.31,2.06,1.31l.1.16h.2l.11-.16,1.32-.84a6.39,6.39,0,0,0,.75-.48s-.79.4-.79.4"/><path class="cls-62" d="M17.93,18.49a1.9,1.9,0,0,0-.34,0l-13,7.42,0,0v0l13-7.58a.9.9,0,0,0,.16-.29l.09-15,0,0,0,0,.09,15a.82.82,0,0,0,.17.29l13,7.58v0l0,0Z"/></g></svg>